ISO-10303-21;
HEADER;

FILE_DESCRIPTION(
/* description */ ('STEP AP242 Edition 2',
'CAx-IF Rec.Pracs.---Representation and Presentation of Product Manufa
cturing Information (PMI)---4.0---2014-10-13',
'CAx-IF Rec.Pracs.---3D Tessellated Geometry---0.4---2014-09-14','2;1',
'CAx-IF Rec.Pracs.---User Defined Attributes---1.5---2016-08-15'),
/* implementation_level */ '2;1');

FILE_NAME(
/* name */ 'Bottom Shell - LCSC Connector',
/* authorisation */ '  ');

FILE_SCHEMA (('AP242_MANAGED_MODEL_BASED_3D_ENGINEERING_MIM_LF { 1 0 10303 442 3 1 4 }'));
ENDSEC;

DATA;
#10=CONTEXT_DEPENDENT_SHAPE_REPRESENTATION(#12,#2158);
#11=NEXT_ASSEMBLY_USAGE_OCCURRENCE('NAUO1','Bottom Shell',
'Bottom Shell',#2159,#2160,'');
#12=(
REPRESENTATION_RELATIONSHIP(' ',' ',#1239,#1238)
REPRESENTATION_RELATIONSHIP_WITH_TRANSFORMATION(#13)
SHAPE_REPRESENTATION_RELATIONSHIP()
);
#13=ITEM_DEFINED_TRANSFORMATION(' ',' ',#1240,#1393);
#14=SHAPE_REPRESENTATION_RELATIONSHIP('','',#1239,#15);
#15=ADVANCED_BREP_SHAPE_REPRESENTATION('',(#1235),#2150);
#16=TOROIDAL_SURFACE('',#1325,0.002,0.001);
#17=TOROIDAL_SURFACE('',#1332,0.002,0.001);
#18=TOROIDAL_SURFACE('',#1334,0.002,0.001);
#19=TOROIDAL_SURFACE('',#1340,0.002,0.001);
#20=CONICAL_SURFACE('',#1313,0.00255,0.785398163397447);
#21=CONICAL_SURFACE('',#1317,0.00255,0.785398163397447);
#22=CONICAL_SURFACE('',#1319,0.00255,0.785398163397447);
#23=CONICAL_SURFACE('',#1323,0.00255,0.785398163397447);
#24=CONICAL_SURFACE('',#1349,0.0035,0.785398163397448);
#25=CONICAL_SURFACE('',#1350,0.0025,0.785398163397448);
#26=CONICAL_SURFACE('',#1363,0.003,0.139626340159546);
#27=CONICAL_SURFACE('',#1366,0.003,0.139626340159546);
#28=CONICAL_SURFACE('',#1377,0.00085,0.785398163397449);
#29=CONICAL_SURFACE('',#1378,0.00045,0.785398163397449);
#30=CONICAL_SURFACE('',#1380,0.0005,0.139626340159546);
#31=CONICAL_SURFACE('',#1383,0.0005,0.139626340159546);
#32=CONICAL_SURFACE('',#1387,0.0005,0.139626340159546);
#33=CONICAL_SURFACE('',#1390,0.0005,0.139626340159546);
#34=CYLINDRICAL_SURFACE('',#1276,0.003);
#35=CYLINDRICAL_SURFACE('',#1279,0.003);
#36=CYLINDRICAL_SURFACE('',#1282,0.003);
#37=CYLINDRICAL_SURFACE('',#1285,0.003);
#38=CYLINDRICAL_SURFACE('',#1288,0.00214999850585);
#39=CYLINDRICAL_SURFACE('',#1291,0.00214999850585);
#40=CYLINDRICAL_SURFACE('',#1293,0.000999999252925);
#41=CYLINDRICAL_SURFACE('',#1296,0.00199999850585);
#42=CYLINDRICAL_SURFACE('',#1299,0.00199999850584999);
#43=CYLINDRICAL_SURFACE('',#1303,0.000999999252925);
#44=CYLINDRICAL_SURFACE('',#1305,0.00214998314201);
#45=CYLINDRICAL_SURFACE('',#1308,0.00214999850585);
#46=CYLINDRICAL_SURFACE('',#1328,0.001);
#47=CYLINDRICAL_SURFACE('',#1330,0.001);
#48=CYLINDRICAL_SURFACE('',#1336,0.001);
#49=CYLINDRICAL_SURFACE('',#1338,0.001);
#50=CYLINDRICAL_SURFACE('',#1341,0.0005);
#51=CYLINDRICAL_SURFACE('',#1342,0.0005);
#52=CYLINDRICAL_SURFACE('',#1343,0.0025);
#53=CYLINDRICAL_SURFACE('',#1346,0.0025);
#54=CYLINDRICAL_SURFACE('',#1359,0.001);
#55=CYLINDRICAL_SURFACE('',#1360,0.001);
#56=CYLINDRICAL_SURFACE('',#1361,0.001);
#57=CYLINDRICAL_SURFACE('',#1362,0.001);
#58=CYLINDRICAL_SURFACE('',#1369,0.00085);
#59=CYLINDRICAL_SURFACE('',#1373,0.00085);
#60=ELLIPSE('',#1263,0.00141421356237309,0.001);
#61=ELLIPSE('',#1264,0.00141421356237309,0.001);
#62=ELLIPSE('',#1354,0.00141421356237309,0.001);
#63=ELLIPSE('',#1355,0.00141421356237309,0.001);
#64=CIRCLE('',#1242,0.000640540834702392);
#65=CIRCLE('',#1243,0.000640540834702392);
#66=CIRCLE('',#1244,0.000640540834702392);
#67=CIRCLE('',#1245,0.000640540834702392);
#68=CIRCLE('',#1246,0.00314054083470239);
#69=CIRCLE('',#1247,0.001);
#70=CIRCLE('',#1248,0.00199999850584999);
#71=CIRCLE('',#1249,0.000999999252925);
#72=CIRCLE('',#1250,0.00214998314201);
#73=CIRCLE('',#1251,0.00214999850585);
#74=CIRCLE('',#1252,0.0005);
#75=CIRCLE('',#1253,0.003);
#76=CIRCLE('',#1254,0.003);
#77=CIRCLE('',#1255,0.003);
#78=CIRCLE('',#1256,0.003);
#79=CIRCLE('',#1257,0.0005);
#80=CIRCLE('',#1258,0.00214999850585);
#81=CIRCLE('',#1259,0.00214999850585);
#82=CIRCLE('',#1260,0.000999999252925);
#83=CIRCLE('',#1261,0.00199999850585);
#84=CIRCLE('',#1262,0.001);
#85=CIRCLE('',#1265,0.00085);
#86=CIRCLE('',#1266,0.00314054083470239);
#87=CIRCLE('',#1267,0.00085);
#88=CIRCLE('',#1270,0.0035);
#89=CIRCLE('',#1271,0.0035);
#90=CIRCLE('',#1272,0.00255);
#91=CIRCLE('',#1273,0.00255);
#92=CIRCLE('',#1274,0.00255);
#93=CIRCLE('',#1275,0.00255);
#94=CIRCLE('',#1277,0.003);
#95=CIRCLE('',#1280,0.003);
#96=CIRCLE('',#1283,0.003);
#97=CIRCLE('',#1286,0.003);
#98=CIRCLE('',#1289,0.00214999850585);
#99=CIRCLE('',#1292,0.00214999850585);
#100=CIRCLE('',#1294,0.000999999252925);
#101=CIRCLE('',#1297,0.00199999850585);
#102=CIRCLE('',#1298,0.00199999850585);
#103=CIRCLE('',#1300,0.00199999850584999);
#104=CIRCLE('',#1301,0.00199999850584999);
#105=CIRCLE('',#1304,0.000999999252925);
#106=CIRCLE('',#1306,0.00214998314201);
#107=CIRCLE('',#1309,0.00214999850585);
#108=CIRCLE('',#1311,0.0005);
#109=CIRCLE('',#1312,0.0005);
#110=CIRCLE('',#1314,0.00270710678118655);
#111=CIRCLE('',#1318,0.00270710678118655);
#112=CIRCLE('',#1320,0.00270710678118655);
#113=CIRCLE('',#1324,0.00270710678118655);
#114=CIRCLE('',#1326,0.001);
#115=CIRCLE('',#1327,0.001);
#116=CIRCLE('',#1329,0.001);
#117=CIRCLE('',#1331,0.001);
#118=CIRCLE('',#1333,0.001);
#119=CIRCLE('',#1335,0.001);
#120=CIRCLE('',#1337,0.001);
#121=CIRCLE('',#1339,0.001);
#122=CIRCLE('',#1344,0.0025);
#123=CIRCLE('',#1345,0.0025);
#124=CIRCLE('',#1347,0.0025);
#125=CIRCLE('',#1348,0.0025);
#126=CIRCLE('',#1356,0.001);
#127=CIRCLE('',#1357,0.001);
#128=CIRCLE('',#1364,0.003);
#129=CIRCLE('',#1367,0.003);
#130=CIRCLE('',#1370,0.00085);
#131=CIRCLE('',#1372,0.00045);
#132=CIRCLE('',#1374,0.00085);
#133=CIRCLE('',#1376,0.00045);
#134=CIRCLE('',#1381,0.0005);
#135=CIRCLE('',#1384,0.0005);
#136=CIRCLE('',#1388,0.0005);
#137=CIRCLE('',#1391,0.0005);
#138=ORIENTED_EDGE('',*,*,#474,.T.);
#139=ORIENTED_EDGE('',*,*,#475,.T.);
#140=ORIENTED_EDGE('',*,*,#476,.F.);
#141=ORIENTED_EDGE('',*,*,#477,.T.);
#142=ORIENTED_EDGE('',*,*,#478,.T.);
#143=ORIENTED_EDGE('',*,*,#479,.T.);
#144=ORIENTED_EDGE('',*,*,#480,.F.);
#145=ORIENTED_EDGE('',*,*,#481,.T.);
#146=ORIENTED_EDGE('',*,*,#482,.F.);
#147=ORIENTED_EDGE('',*,*,#483,.F.);
#148=ORIENTED_EDGE('',*,*,#484,.T.);
#149=ORIENTED_EDGE('',*,*,#485,.F.);
#150=ORIENTED_EDGE('',*,*,#486,.T.);
#151=ORIENTED_EDGE('',*,*,#487,.T.);
#152=ORIENTED_EDGE('',*,*,#488,.F.);
#153=ORIENTED_EDGE('',*,*,#489,.T.);
#154=ORIENTED_EDGE('',*,*,#490,.F.);
#155=ORIENTED_EDGE('',*,*,#491,.T.);
#156=ORIENTED_EDGE('',*,*,#492,.T.);
#157=ORIENTED_EDGE('',*,*,#493,.T.);
#158=ORIENTED_EDGE('',*,*,#494,.F.);
#159=ORIENTED_EDGE('',*,*,#495,.T.);
#160=ORIENTED_EDGE('',*,*,#496,.F.);
#161=ORIENTED_EDGE('',*,*,#497,.T.);
#162=ORIENTED_EDGE('',*,*,#498,.T.);
#163=ORIENTED_EDGE('',*,*,#499,.T.);
#164=ORIENTED_EDGE('',*,*,#500,.T.);
#165=ORIENTED_EDGE('',*,*,#501,.T.);
#166=ORIENTED_EDGE('',*,*,#502,.F.);
#167=ORIENTED_EDGE('',*,*,#503,.T.);
#168=ORIENTED_EDGE('',*,*,#504,.F.);
#169=ORIENTED_EDGE('',*,*,#505,.T.);
#170=ORIENTED_EDGE('',*,*,#506,.T.);
#171=ORIENTED_EDGE('',*,*,#507,.F.);
#172=ORIENTED_EDGE('',*,*,#508,.T.);
#173=ORIENTED_EDGE('',*,*,#509,.T.);
#174=ORIENTED_EDGE('',*,*,#510,.T.);
#175=ORIENTED_EDGE('',*,*,#511,.T.);
#176=ORIENTED_EDGE('',*,*,#512,.T.);
#177=ORIENTED_EDGE('',*,*,#513,.F.);
#178=ORIENTED_EDGE('',*,*,#514,.F.);
#179=ORIENTED_EDGE('',*,*,#515,.F.);
#180=ORIENTED_EDGE('',*,*,#516,.F.);
#181=ORIENTED_EDGE('',*,*,#517,.T.);
#182=ORIENTED_EDGE('',*,*,#518,.T.);
#183=ORIENTED_EDGE('',*,*,#519,.F.);
#184=ORIENTED_EDGE('',*,*,#520,.T.);
#185=ORIENTED_EDGE('',*,*,#521,.T.);
#186=ORIENTED_EDGE('',*,*,#522,.T.);
#187=ORIENTED_EDGE('',*,*,#523,.T.);
#188=ORIENTED_EDGE('',*,*,#524,.T.);
#189=ORIENTED_EDGE('',*,*,#525,.T.);
#190=ORIENTED_EDGE('',*,*,#526,.T.);
#191=ORIENTED_EDGE('',*,*,#527,.T.);
#192=ORIENTED_EDGE('',*,*,#528,.T.);
#193=ORIENTED_EDGE('',*,*,#529,.T.);
#194=ORIENTED_EDGE('',*,*,#530,.T.);
#195=ORIENTED_EDGE('',*,*,#531,.T.);
#196=ORIENTED_EDGE('',*,*,#532,.F.);
#197=ORIENTED_EDGE('',*,*,#493,.F.);
#198=ORIENTED_EDGE('',*,*,#532,.T.);
#199=ORIENTED_EDGE('',*,*,#533,.T.);
#200=ORIENTED_EDGE('',*,*,#534,.F.);
#201=ORIENTED_EDGE('',*,*,#494,.T.);
#202=ORIENTED_EDGE('',*,*,#534,.T.);
#203=ORIENTED_EDGE('',*,*,#535,.T.);
#204=ORIENTED_EDGE('',*,*,#536,.F.);
#205=ORIENTED_EDGE('',*,*,#495,.F.);
#206=ORIENTED_EDGE('',*,*,#536,.T.);
#207=ORIENTED_EDGE('',*,*,#537,.T.);
#208=ORIENTED_EDGE('',*,*,#538,.F.);
#209=ORIENTED_EDGE('',*,*,#496,.T.);
#210=ORIENTED_EDGE('',*,*,#538,.T.);
#211=ORIENTED_EDGE('',*,*,#539,.T.);
#212=ORIENTED_EDGE('',*,*,#540,.F.);
#213=ORIENTED_EDGE('',*,*,#497,.F.);
#214=ORIENTED_EDGE('',*,*,#540,.T.);
#215=ORIENTED_EDGE('',*,*,#541,.T.);
#216=ORIENTED_EDGE('',*,*,#542,.F.);
#217=ORIENTED_EDGE('',*,*,#498,.F.);
#218=ORIENTED_EDGE('',*,*,#542,.T.);
#219=ORIENTED_EDGE('',*,*,#543,.T.);
#220=ORIENTED_EDGE('',*,*,#544,.F.);
#221=ORIENTED_EDGE('',*,*,#499,.F.);
#222=ORIENTED_EDGE('',*,*,#492,.F.);
#223=ORIENTED_EDGE('',*,*,#545,.T.);
#224=ORIENTED_EDGE('',*,*,#546,.T.);
#225=ORIENTED_EDGE('',*,*,#547,.T.);
#226=ORIENTED_EDGE('',*,*,#500,.F.);
#227=ORIENTED_EDGE('',*,*,#544,.T.);
#228=ORIENTED_EDGE('',*,*,#548,.T.);
#229=ORIENTED_EDGE('',*,*,#530,.F.);
#230=ORIENTED_EDGE('',*,*,#502,.T.);
#231=ORIENTED_EDGE('',*,*,#549,.T.);
#232=ORIENTED_EDGE('',*,*,#550,.F.);
#233=ORIENTED_EDGE('',*,*,#551,.F.);
#234=ORIENTED_EDGE('',*,*,#552,.T.);
#235=ORIENTED_EDGE('',*,*,#553,.F.);
#236=ORIENTED_EDGE('',*,*,#503,.F.);
#237=ORIENTED_EDGE('',*,*,#551,.T.);
#238=ORIENTED_EDGE('',*,*,#554,.F.);
#239=ORIENTED_EDGE('',*,*,#555,.F.);
#240=ORIENTED_EDGE('',*,*,#504,.T.);
#241=ORIENTED_EDGE('',*,*,#553,.T.);
#242=ORIENTED_EDGE('',*,*,#556,.T.);
#243=ORIENTED_EDGE('',*,*,#557,.F.);
#244=ORIENTED_EDGE('',*,*,#505,.F.);
#245=ORIENTED_EDGE('',*,*,#555,.T.);
#246=ORIENTED_EDGE('',*,*,#558,.T.);
#247=ORIENTED_EDGE('',*,*,#559,.F.);
#248=ORIENTED_EDGE('',*,*,#506,.F.);
#249=ORIENTED_EDGE('',*,*,#557,.T.);
#250=ORIENTED_EDGE('',*,*,#517,.F.);
#251=ORIENTED_EDGE('',*,*,#560,.T.);
#252=ORIENTED_EDGE('',*,*,#561,.T.);
#253=ORIENTED_EDGE('',*,*,#507,.T.);
#254=ORIENTED_EDGE('',*,*,#559,.T.);
#255=ORIENTED_EDGE('',*,*,#562,.F.);
#256=ORIENTED_EDGE('',*,*,#485,.T.);
#257=ORIENTED_EDGE('',*,*,#563,.T.);
#258=ORIENTED_EDGE('',*,*,#564,.T.);
#259=ORIENTED_EDGE('',*,*,#519,.T.);
#260=ORIENTED_EDGE('',*,*,#565,.F.);
#261=ORIENTED_EDGE('',*,*,#566,.F.);
#262=ORIENTED_EDGE('',*,*,#567,.T.);
#263=ORIENTED_EDGE('',*,*,#568,.F.);
#264=ORIENTED_EDGE('',*,*,#486,.F.);
#265=ORIENTED_EDGE('',*,*,#566,.T.);
#266=ORIENTED_EDGE('',*,*,#569,.T.);
#267=ORIENTED_EDGE('',*,*,#570,.F.);
#268=ORIENTED_EDGE('',*,*,#487,.F.);
#269=ORIENTED_EDGE('',*,*,#568,.T.);
#270=ORIENTED_EDGE('',*,*,#571,.F.);
#271=ORIENTED_EDGE('',*,*,#572,.F.);
#272=ORIENTED_EDGE('',*,*,#488,.T.);
#273=ORIENTED_EDGE('',*,*,#570,.T.);
#274=ORIENTED_EDGE('',*,*,#573,.T.);
#275=ORIENTED_EDGE('',*,*,#574,.F.);
#276=ORIENTED_EDGE('',*,*,#489,.F.);
#277=ORIENTED_EDGE('',*,*,#572,.T.);
#278=ORIENTED_EDGE('',*,*,#575,.F.);
#279=ORIENTED_EDGE('',*,*,#576,.T.);
#280=ORIENTED_EDGE('',*,*,#490,.T.);
#281=ORIENTED_EDGE('',*,*,#574,.T.);
#282=ORIENTED_EDGE('',*,*,#546,.F.);
#283=ORIENTED_EDGE('',*,*,#577,.T.);
#284=ORIENTED_EDGE('',*,*,#575,.T.);
#285=ORIENTED_EDGE('',*,*,#573,.F.);
#286=ORIENTED_EDGE('',*,*,#571,.T.);
#287=ORIENTED_EDGE('',*,*,#569,.F.);
#288=ORIENTED_EDGE('',*,*,#567,.F.);
#289=ORIENTED_EDGE('',*,*,#565,.T.);
#290=ORIENTED_EDGE('',*,*,#518,.F.);
#291=ORIENTED_EDGE('',*,*,#562,.T.);
#292=ORIENTED_EDGE('',*,*,#558,.F.);
#293=ORIENTED_EDGE('',*,*,#556,.F.);
#294=ORIENTED_EDGE('',*,*,#554,.T.);
#295=ORIENTED_EDGE('',*,*,#552,.F.);
#296=ORIENTED_EDGE('',*,*,#550,.T.);
#297=ORIENTED_EDGE('',*,*,#578,.T.);
#298=ORIENTED_EDGE('',*,*,#579,.F.);
#299=ORIENTED_EDGE('',*,*,#580,.T.);
#300=ORIENTED_EDGE('',*,*,#581,.F.);
#301=ORIENTED_EDGE('',*,*,#527,.F.);
#302=ORIENTED_EDGE('',*,*,#581,.T.);
#303=ORIENTED_EDGE('',*,*,#582,.T.);
#304=ORIENTED_EDGE('',*,*,#583,.F.);
#305=ORIENTED_EDGE('',*,*,#528,.F.);
#306=ORIENTED_EDGE('',*,*,#584,.F.);
#307=ORIENTED_EDGE('',*,*,#585,.T.);
#308=ORIENTED_EDGE('',*,*,#579,.T.);
#309=ORIENTED_EDGE('',*,*,#526,.F.);
#310=ORIENTED_EDGE('',*,*,#583,.T.);
#311=ORIENTED_EDGE('',*,*,#586,.T.);
#312=ORIENTED_EDGE('',*,*,#587,.F.);
#313=ORIENTED_EDGE('',*,*,#529,.F.);
#314=ORIENTED_EDGE('',*,*,#588,.F.);
#315=ORIENTED_EDGE('',*,*,#589,.T.);
#316=ORIENTED_EDGE('',*,*,#584,.T.);
#317=ORIENTED_EDGE('',*,*,#525,.F.);
#318=ORIENTED_EDGE('',*,*,#587,.T.);
#319=ORIENTED_EDGE('',*,*,#590,.T.);
#320=ORIENTED_EDGE('',*,*,#591,.F.);
#321=ORIENTED_EDGE('',*,*,#522,.F.);
#322=ORIENTED_EDGE('',*,*,#592,.F.);
#323=ORIENTED_EDGE('',*,*,#593,.T.);
#324=ORIENTED_EDGE('',*,*,#588,.T.);
#325=ORIENTED_EDGE('',*,*,#524,.F.);
#326=ORIENTED_EDGE('',*,*,#591,.T.);
#327=ORIENTED_EDGE('',*,*,#594,.T.);
#328=ORIENTED_EDGE('',*,*,#592,.T.);
#329=ORIENTED_EDGE('',*,*,#523,.F.);
#330=ORIENTED_EDGE('',*,*,#595,.F.);
#331=ORIENTED_EDGE('',*,*,#594,.F.);
#332=ORIENTED_EDGE('',*,*,#596,.F.);
#333=ORIENTED_EDGE('',*,*,#539,.F.);
#334=ORIENTED_EDGE('',*,*,#596,.T.);
#335=ORIENTED_EDGE('',*,*,#590,.F.);
#336=ORIENTED_EDGE('',*,*,#597,.F.);
#337=ORIENTED_EDGE('',*,*,#541,.F.);
#338=ORIENTED_EDGE('',*,*,#595,.T.);
#339=ORIENTED_EDGE('',*,*,#537,.F.);
#340=ORIENTED_EDGE('',*,*,#598,.F.);
#341=ORIENTED_EDGE('',*,*,#593,.F.);
#342=ORIENTED_EDGE('',*,*,#597,.T.);
#343=ORIENTED_EDGE('',*,*,#586,.F.);
#344=ORIENTED_EDGE('',*,*,#599,.F.);
#345=ORIENTED_EDGE('',*,*,#543,.F.);
#346=ORIENTED_EDGE('',*,*,#598,.T.);
#347=ORIENTED_EDGE('',*,*,#535,.F.);
#348=ORIENTED_EDGE('',*,*,#600,.F.);
#349=ORIENTED_EDGE('',*,*,#589,.F.);
#350=ORIENTED_EDGE('',*,*,#599,.T.);
#351=ORIENTED_EDGE('',*,*,#582,.F.);
#352=ORIENTED_EDGE('',*,*,#601,.F.);
#353=ORIENTED_EDGE('',*,*,#548,.F.);
#354=ORIENTED_EDGE('',*,*,#600,.T.);
#355=ORIENTED_EDGE('',*,*,#533,.F.);
#356=ORIENTED_EDGE('',*,*,#602,.F.);
#357=ORIENTED_EDGE('',*,*,#585,.F.);
#358=ORIENTED_EDGE('',*,*,#601,.T.);
#359=ORIENTED_EDGE('',*,*,#580,.F.);
#360=ORIENTED_EDGE('',*,*,#602,.T.);
#361=ORIENTED_EDGE('',*,*,#531,.F.);
#362=ORIENTED_EDGE('',*,*,#491,.F.);
#363=ORIENTED_EDGE('',*,*,#576,.F.);
#364=ORIENTED_EDGE('',*,*,#577,.F.);
#365=ORIENTED_EDGE('',*,*,#545,.F.);
#366=ORIENTED_EDGE('',*,*,#501,.F.);
#367=ORIENTED_EDGE('',*,*,#547,.F.);
#368=ORIENTED_EDGE('',*,*,#578,.F.);
#369=ORIENTED_EDGE('',*,*,#549,.F.);
#370=ORIENTED_EDGE('',*,*,#603,.T.);
#371=ORIENTED_EDGE('',*,*,#604,.F.);
#372=ORIENTED_EDGE('',*,*,#605,.T.);
#373=ORIENTED_EDGE('',*,*,#606,.T.);
#374=ORIENTED_EDGE('',*,*,#603,.F.);
#375=ORIENTED_EDGE('',*,*,#520,.F.);
#376=ORIENTED_EDGE('',*,*,#521,.F.);
#377=ORIENTED_EDGE('',*,*,#605,.F.);
#378=ORIENTED_EDGE('',*,*,#607,.T.);
#379=ORIENTED_EDGE('',*,*,#608,.T.);
#380=ORIENTED_EDGE('',*,*,#509,.F.);
#381=ORIENTED_EDGE('',*,*,#609,.T.);
#382=ORIENTED_EDGE('',*,*,#483,.T.);
#383=ORIENTED_EDGE('',*,*,#610,.T.);
#384=ORIENTED_EDGE('',*,*,#611,.F.);
#385=ORIENTED_EDGE('',*,*,#612,.T.);
#386=ORIENTED_EDGE('',*,*,#611,.T.);
#387=ORIENTED_EDGE('',*,*,#613,.T.);
#388=ORIENTED_EDGE('',*,*,#614,.F.);
#389=ORIENTED_EDGE('',*,*,#615,.T.);
#390=ORIENTED_EDGE('',*,*,#607,.F.);
#391=ORIENTED_EDGE('',*,*,#616,.T.);
#392=ORIENTED_EDGE('',*,*,#560,.F.);
#393=ORIENTED_EDGE('',*,*,#516,.T.);
#394=ORIENTED_EDGE('',*,*,#564,.F.);
#395=ORIENTED_EDGE('',*,*,#617,.T.);
#396=ORIENTED_EDGE('',*,*,#614,.T.);
#397=ORIENTED_EDGE('',*,*,#618,.T.);
#398=ORIENTED_EDGE('',*,*,#511,.F.);
#399=ORIENTED_EDGE('',*,*,#619,.T.);
#400=ORIENTED_EDGE('',*,*,#484,.F.);
#401=ORIENTED_EDGE('',*,*,#612,.F.);
#402=ORIENTED_EDGE('',*,*,#617,.F.);
#403=ORIENTED_EDGE('',*,*,#563,.F.);
#404=ORIENTED_EDGE('',*,*,#508,.F.);
#405=ORIENTED_EDGE('',*,*,#561,.F.);
#406=ORIENTED_EDGE('',*,*,#616,.F.);
#407=ORIENTED_EDGE('',*,*,#609,.F.);
#408=ORIENTED_EDGE('',*,*,#512,.F.);
#409=ORIENTED_EDGE('',*,*,#618,.F.);
#410=ORIENTED_EDGE('',*,*,#613,.F.);
#411=ORIENTED_EDGE('',*,*,#610,.F.);
#412=ORIENTED_EDGE('',*,*,#615,.F.);
#413=ORIENTED_EDGE('',*,*,#619,.F.);
#414=ORIENTED_EDGE('',*,*,#510,.F.);
#415=ORIENTED_EDGE('',*,*,#608,.F.);
#416=ORIENTED_EDGE('',*,*,#620,.F.);
#417=ORIENTED_EDGE('',*,*,#482,.T.);
#418=ORIENTED_EDGE('',*,*,#606,.F.);
#419=ORIENTED_EDGE('',*,*,#620,.T.);
#420=ORIENTED_EDGE('',*,*,#621,.T.);
#421=ORIENTED_EDGE('',*,*,#514,.T.);
#422=ORIENTED_EDGE('',*,*,#621,.F.);
#423=ORIENTED_EDGE('',*,*,#604,.T.);
#424=ORIENTED_EDGE('',*,*,#622,.T.);
#425=ORIENTED_EDGE('',*,*,#513,.T.);
#426=ORIENTED_EDGE('',*,*,#623,.T.);
#427=ORIENTED_EDGE('',*,*,#624,.T.);
#428=ORIENTED_EDGE('',*,*,#515,.T.);
#429=ORIENTED_EDGE('',*,*,#625,.T.);
#430=ORIENTED_EDGE('',*,*,#625,.F.);
#431=ORIENTED_EDGE('',*,*,#624,.F.);
#432=ORIENTED_EDGE('',*,*,#622,.F.);
#433=ORIENTED_EDGE('',*,*,#623,.F.);
#434=ORIENTED_EDGE('',*,*,#478,.F.);
#435=ORIENTED_EDGE('',*,*,#626,.F.);
#436=ORIENTED_EDGE('',*,*,#627,.T.);
#437=ORIENTED_EDGE('',*,*,#628,.T.);
#438=ORIENTED_EDGE('',*,*,#481,.F.);
#439=ORIENTED_EDGE('',*,*,#629,.F.);
#440=ORIENTED_EDGE('',*,*,#630,.T.);
#441=ORIENTED_EDGE('',*,*,#626,.T.);
#442=ORIENTED_EDGE('',*,*,#480,.T.);
#443=ORIENTED_EDGE('',*,*,#631,.F.);
#444=ORIENTED_EDGE('',*,*,#632,.F.);
#445=ORIENTED_EDGE('',*,*,#629,.T.);
#446=ORIENTED_EDGE('',*,*,#479,.F.);
#447=ORIENTED_EDGE('',*,*,#628,.F.);
#448=ORIENTED_EDGE('',*,*,#633,.T.);
#449=ORIENTED_EDGE('',*,*,#631,.T.);
#450=ORIENTED_EDGE('',*,*,#627,.F.);
#451=ORIENTED_EDGE('',*,*,#630,.F.);
#452=ORIENTED_EDGE('',*,*,#632,.T.);
#453=ORIENTED_EDGE('',*,*,#633,.F.);
#454=ORIENTED_EDGE('',*,*,#474,.F.);
#455=ORIENTED_EDGE('',*,*,#634,.F.);
#456=ORIENTED_EDGE('',*,*,#635,.T.);
#457=ORIENTED_EDGE('',*,*,#636,.T.);
#458=ORIENTED_EDGE('',*,*,#477,.F.);
#459=ORIENTED_EDGE('',*,*,#637,.F.);
#460=ORIENTED_EDGE('',*,*,#638,.T.);
#461=ORIENTED_EDGE('',*,*,#634,.T.);
#462=ORIENTED_EDGE('',*,*,#476,.T.);
#463=ORIENTED_EDGE('',*,*,#639,.F.);
#464=ORIENTED_EDGE('',*,*,#640,.F.);
#465=ORIENTED_EDGE('',*,*,#637,.T.);
#466=ORIENTED_EDGE('',*,*,#475,.F.);
#467=ORIENTED_EDGE('',*,*,#636,.F.);
#468=ORIENTED_EDGE('',*,*,#641,.T.);
#469=ORIENTED_EDGE('',*,*,#639,.T.);
#470=ORIENTED_EDGE('',*,*,#635,.F.);
#471=ORIENTED_EDGE('',*,*,#638,.F.);
#472=ORIENTED_EDGE('',*,*,#640,.T.);
#473=ORIENTED_EDGE('',*,*,#641,.F.);
#474=EDGE_CURVE('',#642,#643,#754,.T.);
#475=EDGE_CURVE('',#643,#644,#64,.F.);
#476=EDGE_CURVE('',#645,#644,#755,.F.);
#477=EDGE_CURVE('',#645,#642,#65,.F.);
#478=EDGE_CURVE('',#646,#647,#756,.T.);
#479=EDGE_CURVE('',#647,#648,#66,.F.);
#480=EDGE_CURVE('',#649,#648,#757,.F.);
#481=EDGE_CURVE('',#649,#646,#67,.F.);
#482=EDGE_CURVE('',#650,#650,#68,.T.);
#483=EDGE_CURVE('',#651,#652,#758,.T.);
#484=EDGE_CURVE('',#651,#653,#69,.T.);
#485=EDGE_CURVE('',#654,#653,#70,.T.);
#486=EDGE_CURVE('',#654,#655,#759,.T.);
#487=EDGE_CURVE('',#655,#656,#71,.T.);
#488=EDGE_CURVE('',#657,#656,#72,.T.);
#489=EDGE_CURVE('',#657,#658,#760,.T.);
#490=EDGE_CURVE('',#659,#658,#73,.T.);
#491=EDGE_CURVE('',#659,#660,#74,.T.);
#492=EDGE_CURVE('',#660,#661,#761,.T.);
#493=EDGE_CURVE('',#661,#662,#75,.T.);
#494=EDGE_CURVE('',#663,#662,#762,.T.);
#495=EDGE_CURVE('',#663,#664,#76,.T.);
#496=EDGE_CURVE('',#665,#664,#763,.T.);
#497=EDGE_CURVE('',#665,#666,#77,.T.);
#498=EDGE_CURVE('',#666,#667,#764,.T.);
#499=EDGE_CURVE('',#667,#668,#78,.T.);
#500=EDGE_CURVE('',#668,#669,#765,.T.);
#501=EDGE_CURVE('',#669,#670,#79,.T.);
#502=EDGE_CURVE('',#671,#670,#80,.T.);
#503=EDGE_CURVE('',#671,#672,#766,.T.);
#504=EDGE_CURVE('',#673,#672,#81,.T.);
#505=EDGE_CURVE('',#673,#674,#82,.T.);
#506=EDGE_CURVE('',#674,#675,#767,.T.);
#507=EDGE_CURVE('',#676,#675,#83,.T.);
#508=EDGE_CURVE('',#676,#677,#84,.T.);
#509=EDGE_CURVE('',#677,#678,#768,.T.);
#510=EDGE_CURVE('',#678,#679,#60,.F.);
#511=EDGE_CURVE('',#679,#680,#769,.T.);
#512=EDGE_CURVE('',#680,#652,#61,.F.);
#513=EDGE_CURVE('',#681,#681,#85,.T.);
#514=EDGE_CURVE('',#682,#682,#86,.T.);
#515=EDGE_CURVE('',#683,#683,#87,.T.);
#516=EDGE_CURVE('',#684,#685,#770,.T.);
#517=EDGE_CURVE('',#684,#686,#771,.T.);
#518=EDGE_CURVE('',#686,#687,#772,.T.);
#519=EDGE_CURVE('',#685,#687,#773,.F.);
#520=EDGE_CURVE('',#688,#688,#88,.F.);
#521=EDGE_CURVE('',#689,#689,#89,.F.);
#522=EDGE_CURVE('',#690,#691,#774,.T.);
#523=EDGE_CURVE('',#691,#692,#90,.T.);
#524=EDGE_CURVE('',#692,#693,#775,.T.);
#525=EDGE_CURVE('',#693,#694,#91,.T.);
#526=EDGE_CURVE('',#694,#695,#776,.T.);
#527=EDGE_CURVE('',#695,#696,#92,.T.);
#528=EDGE_CURVE('',#696,#697,#777,.T.);
#529=EDGE_CURVE('',#697,#690,#93,.T.);
#530=EDGE_CURVE('',#661,#698,#778,.T.);
#531=EDGE_CURVE('',#698,#699,#94,.F.);
#532=EDGE_CURVE('',#662,#699,#779,.T.);
#533=EDGE_CURVE('',#699,#700,#780,.F.);
#534=EDGE_CURVE('',#663,#700,#781,.T.);
#535=EDGE_CURVE('',#700,#701,#95,.F.);
#536=EDGE_CURVE('',#664,#701,#782,.T.);
#537=EDGE_CURVE('',#701,#702,#783,.F.);
#538=EDGE_CURVE('',#665,#702,#784,.T.);
#539=EDGE_CURVE('',#702,#703,#96,.F.);
#540=EDGE_CURVE('',#666,#703,#785,.T.);
#541=EDGE_CURVE('',#703,#704,#786,.T.);
#542=EDGE_CURVE('',#667,#704,#787,.T.);
#543=EDGE_CURVE('',#704,#705,#97,.F.);
#544=EDGE_CURVE('',#668,#705,#788,.T.);
#545=EDGE_CURVE('',#660,#706,#789,.F.);
#546=EDGE_CURVE('',#706,#707,#790,.T.);
#547=EDGE_CURVE('',#707,#669,#791,.T.);
#548=EDGE_CURVE('',#705,#698,#792,.T.);
#549=EDGE_CURVE('',#670,#708,#793,.T.);
#550=EDGE_CURVE('',#709,#708,#98,.T.);
#551=EDGE_CURVE('',#671,#709,#794,.F.);
#552=EDGE_CURVE('',#709,#710,#795,.T.);
#553=EDGE_CURVE('',#672,#710,#796,.T.);
#554=EDGE_CURVE('',#711,#710,#99,.T.);
#555=EDGE_CURVE('',#673,#711,#797,.T.);
#556=EDGE_CURVE('',#711,#712,#100,.T.);
#557=EDGE_CURVE('',#674,#712,#798,.F.);
#558=EDGE_CURVE('',#712,#713,#799,.T.);
#559=EDGE_CURVE('',#675,#713,#800,.F.);
#560=EDGE_CURVE('',#684,#714,#101,.T.);
#561=EDGE_CURVE('',#714,#676,#801,.T.);
#562=EDGE_CURVE('',#686,#713,#102,.T.);
#563=EDGE_CURVE('',#653,#715,#802,.F.);
#564=EDGE_CURVE('',#715,#685,#103,.T.);
#565=EDGE_CURVE('',#716,#687,#104,.T.);
#566=EDGE_CURVE('',#654,#716,#803,.T.);
#567=EDGE_CURVE('',#716,#717,#804,.T.);
#568=EDGE_CURVE('',#655,#717,#805,.T.);
#569=EDGE_CURVE('',#717,#718,#105,.T.);
#570=EDGE_CURVE('',#656,#718,#806,.T.);
#571=EDGE_CURVE('',#719,#718,#106,.T.);
#572=EDGE_CURVE('',#657,#719,#807,.T.);
#573=EDGE_CURVE('',#719,#720,#808,.T.);
#574=EDGE_CURVE('',#658,#720,#809,.T.);
#575=EDGE_CURVE('',#721,#720,#107,.T.);
#576=EDGE_CURVE('',#721,#659,#810,.F.);
#577=EDGE_CURVE('',#706,#721,#108,.T.);
#578=EDGE_CURVE('',#708,#707,#109,.T.);
#579=EDGE_CURVE('',#722,#695,#811,.T.);
#580=EDGE_CURVE('',#722,#723,#110,.F.);
#581=EDGE_CURVE('',#696,#723,#812,.T.);
#582=EDGE_CURVE('',#723,#724,#813,.F.);
#583=EDGE_CURVE('',#697,#724,#814,.T.);
#584=EDGE_CURVE('',#725,#694,#815,.T.);
#585=EDGE_CURVE('',#725,#722,#816,.F.);
#586=EDGE_CURVE('',#724,#726,#111,.F.);
#587=EDGE_CURVE('',#690,#726,#817,.T.);
#588=EDGE_CURVE('',#727,#693,#818,.T.);
#589=EDGE_CURVE('',#727,#725,#112,.F.);
#590=EDGE_CURVE('',#726,#728,#819,.F.);
#591=EDGE_CURVE('',#691,#728,#820,.T.);
#592=EDGE_CURVE('',#729,#692,#821,.T.);
#593=EDGE_CURVE('',#729,#727,#822,.F.);
#594=EDGE_CURVE('',#728,#729,#113,.F.);
#595=EDGE_CURVE('',#729,#702,#114,.T.);
#596=EDGE_CURVE('',#703,#728,#115,.T.);
#597=EDGE_CURVE('',#704,#726,#116,.T.);
#598=EDGE_CURVE('',#727,#701,#117,.T.);
#599=EDGE_CURVE('',#705,#724,#118,.T.);
#600=EDGE_CURVE('',#725,#700,#119,.T.);
#601=EDGE_CURVE('',#698,#723,#120,.T.);
#602=EDGE_CURVE('',#722,#699,#121,.T.);
#603=EDGE_CURVE('',#730,#730,#122,.T.);
#604=EDGE_CURVE('',#731,#731,#123,.F.);
#605=EDGE_CURVE('',#732,#732,#124,.T.);
#606=EDGE_CURVE('',#733,#733,#125,.T.);
#607=EDGE_CURVE('',#734,#735,#823,.T.);
#608=EDGE_CURVE('',#735,#678,#824,.F.);
#609=EDGE_CURVE('',#677,#734,#825,.F.);
#610=EDGE_CURVE('',#652,#736,#826,.F.);
#611=EDGE_CURVE('',#737,#736,#827,.T.);
#612=EDGE_CURVE('',#737,#651,#828,.F.);
#613=EDGE_CURVE('',#736,#738,#62,.T.);
#614=EDGE_CURVE('',#739,#738,#829,.T.);
#615=EDGE_CURVE('',#739,#735,#63,.T.);
#616=EDGE_CURVE('',#734,#714,#126,.F.);
#617=EDGE_CURVE('',#715,#737,#127,.F.);
#618=EDGE_CURVE('',#738,#680,#830,.F.);
#619=EDGE_CURVE('',#679,#739,#831,.F.);
#620=EDGE_CURVE('',#740,#740,#128,.T.);
#621=EDGE_CURVE('',#741,#741,#129,.F.);
#622=EDGE_CURVE('',#742,#742,#130,.F.);
#623=EDGE_CURVE('',#743,#743,#131,.T.);
#624=EDGE_CURVE('',#744,#744,#132,.F.);
#625=EDGE_CURVE('',#745,#745,#133,.T.);
#626=EDGE_CURVE('',#746,#646,#832,.T.);
#627=EDGE_CURVE('',#746,#747,#833,.T.);
#628=EDGE_CURVE('',#747,#647,#834,.T.);
#629=EDGE_CURVE('',#748,#649,#835,.T.);
#630=EDGE_CURVE('',#748,#746,#134,.F.);
#631=EDGE_CURVE('',#749,#648,#836,.T.);
#632=EDGE_CURVE('',#748,#749,#837,.F.);
#633=EDGE_CURVE('',#747,#749,#135,.F.);
#634=EDGE_CURVE('',#750,#642,#838,.T.);
#635=EDGE_CURVE('',#750,#751,#839,.T.);
#636=EDGE_CURVE('',#751,#643,#840,.T.);
#637=EDGE_CURVE('',#752,#645,#841,.T.);
#638=EDGE_CURVE('',#752,#750,#136,.F.);
#639=EDGE_CURVE('',#753,#644,#842,.T.);
#640=EDGE_CURVE('',#752,#753,#843,.F.);
#641=EDGE_CURVE('',#751,#753,#137,.F.);
#642=VERTEX_POINT('',#1795);
#643=VERTEX_POINT('',#1796);
#644=VERTEX_POINT('',#1798);
#645=VERTEX_POINT('',#1800);
#646=VERTEX_POINT('',#1803);
#647=VERTEX_POINT('',#1804);
#648=VERTEX_POINT('',#1806);
#649=VERTEX_POINT('',#1808);
#650=VERTEX_POINT('',#1811);
#651=VERTEX_POINT('',#1813);
#652=VERTEX_POINT('',#1814);
#653=VERTEX_POINT('',#1816);
#654=VERTEX_POINT('',#1818);
#655=VERTEX_POINT('',#1820);
#656=VERTEX_POINT('',#1822);
#657=VERTEX_POINT('',#1824);
#658=VERTEX_POINT('',#1826);
#659=VERTEX_POINT('',#1828);
#660=VERTEX_POINT('',#1830);
#661=VERTEX_POINT('',#1832);
#662=VERTEX_POINT('',#1834);
#663=VERTEX_POINT('',#1836);
#664=VERTEX_POINT('',#1838);
#665=VERTEX_POINT('',#1840);
#666=VERTEX_POINT('',#1842);
#667=VERTEX_POINT('',#1844);
#668=VERTEX_POINT('',#1846);
#669=VERTEX_POINT('',#1848);
#670=VERTEX_POINT('',#1850);
#671=VERTEX_POINT('',#1852);
#672=VERTEX_POINT('',#1854);
#673=VERTEX_POINT('',#1856);
#674=VERTEX_POINT('',#1858);
#675=VERTEX_POINT('',#1860);
#676=VERTEX_POINT('',#1862);
#677=VERTEX_POINT('',#1864);
#678=VERTEX_POINT('',#1866);
#679=VERTEX_POINT('',#1868);
#680=VERTEX_POINT('',#1870);
#681=VERTEX_POINT('',#1873);
#682=VERTEX_POINT('',#1875);
#683=VERTEX_POINT('',#1877);
#684=VERTEX_POINT('',#1880);
#685=VERTEX_POINT('',#1881);
#686=VERTEX_POINT('',#1883);
#687=VERTEX_POINT('',#1885);
#688=VERTEX_POINT('',#1889);
#689=VERTEX_POINT('',#1891);
#690=VERTEX_POINT('',#1893);
#691=VERTEX_POINT('',#1894);
#692=VERTEX_POINT('',#1896);
#693=VERTEX_POINT('',#1898);
#694=VERTEX_POINT('',#1900);
#695=VERTEX_POINT('',#1902);
#696=VERTEX_POINT('',#1904);
#697=VERTEX_POINT('',#1906);
#698=VERTEX_POINT('',#1910);
#699=VERTEX_POINT('',#1912);
#700=VERTEX_POINT('',#1916);
#701=VERTEX_POINT('',#1920);
#702=VERTEX_POINT('',#1924);
#703=VERTEX_POINT('',#1928);
#704=VERTEX_POINT('',#1932);
#705=VERTEX_POINT('',#1936);
#706=VERTEX_POINT('',#1940);
#707=VERTEX_POINT('',#1942);
#708=VERTEX_POINT('',#1947);
#709=VERTEX_POINT('',#1949);
#710=VERTEX_POINT('',#1953);
#711=VERTEX_POINT('',#1957);
#712=VERTEX_POINT('',#1961);
#713=VERTEX_POINT('',#1965);
#714=VERTEX_POINT('',#1969);
#715=VERTEX_POINT('',#1974);
#716=VERTEX_POINT('',#1977);
#717=VERTEX_POINT('',#1981);
#718=VERTEX_POINT('',#1985);
#719=VERTEX_POINT('',#1989);
#720=VERTEX_POINT('',#1993);
#721=VERTEX_POINT('',#1997);
#722=VERTEX_POINT('',#2004);
#723=VERTEX_POINT('',#2006);
#724=VERTEX_POINT('',#2010);
#725=VERTEX_POINT('',#2014);
#726=VERTEX_POINT('',#2018);
#727=VERTEX_POINT('',#2022);
#728=VERTEX_POINT('',#2026);
#729=VERTEX_POINT('',#2030);
#730=VERTEX_POINT('',#2054);
#731=VERTEX_POINT('',#2056);
#732=VERTEX_POINT('',#2059);
#733=VERTEX_POINT('',#2061);
#734=VERTEX_POINT('',#2066);
#735=VERTEX_POINT('',#2067);
#736=VERTEX_POINT('',#2072);
#737=VERTEX_POINT('',#2074);
#738=VERTEX_POINT('',#2078);
#739=VERTEX_POINT('',#2080);
#740=VERTEX_POINT('',#2093);
#741=VERTEX_POINT('',#2097);
#742=VERTEX_POINT('',#2101);
#743=VERTEX_POINT('',#2104);
#744=VERTEX_POINT('',#2107);
#745=VERTEX_POINT('',#2110);
#746=VERTEX_POINT('',#2115);
#747=VERTEX_POINT('',#2117);
#748=VERTEX_POINT('',#2121);
#749=VERTEX_POINT('',#2125);
#750=VERTEX_POINT('',#2132);
#751=VERTEX_POINT('',#2134);
#752=VERTEX_POINT('',#2138);
#753=VERTEX_POINT('',#2142);
#754=LINE('',#1794,#844);
#755=LINE('',#1799,#845);
#756=LINE('',#1802,#846);
#757=LINE('',#1807,#847);
#758=LINE('',#1812,#848);
#759=LINE('',#1819,#849);
#760=LINE('',#1825,#850);
#761=LINE('',#1831,#851);
#762=LINE('',#1835,#852);
#763=LINE('',#1839,#853);
#764=LINE('',#1843,#854);
#765=LINE('',#1847,#855);
#766=LINE('',#1853,#856);
#767=LINE('',#1859,#857);
#768=LINE('',#1865,#858);
#769=LINE('',#1869,#859);
#770=LINE('',#1879,#860);
#771=LINE('',#1882,#861);
#772=LINE('',#1884,#862);
#773=LINE('',#1886,#863);
#774=LINE('',#1892,#864);
#775=LINE('',#1897,#865);
#776=LINE('',#1901,#866);
#777=LINE('',#1905,#867);
#778=LINE('',#1909,#868);
#779=LINE('',#1913,#869);
#780=LINE('',#1915,#870);
#781=LINE('',#1917,#871);
#782=LINE('',#1921,#872);
#783=LINE('',#1923,#873);
#784=LINE('',#1925,#874);
#785=LINE('',#1929,#875);
#786=LINE('',#1931,#876);
#787=LINE('',#1933,#877);
#788=LINE('',#1937,#878);
#789=LINE('',#1939,#879);
#790=LINE('',#1941,#880);
#791=LINE('',#1943,#881);
#792=LINE('',#1944,#882);
#793=LINE('',#1946,#883);
#794=LINE('',#1950,#884);
#795=LINE('',#1952,#885);
#796=LINE('',#1954,#886);
#797=LINE('',#1958,#887);
#798=LINE('',#1962,#888);
#799=LINE('',#1964,#889);
#800=LINE('',#1966,#890);
#801=LINE('',#1970,#891);
#802=LINE('',#1973,#892);
#803=LINE('',#1978,#893);
#804=LINE('',#1980,#894);
#805=LINE('',#1982,#895);
#806=LINE('',#1986,#896);
#807=LINE('',#1990,#897);
#808=LINE('',#1992,#898);
#809=LINE('',#1994,#899);
#810=LINE('',#1998,#900);
#811=LINE('',#2003,#901);
#812=LINE('',#2007,#902);
#813=LINE('',#2009,#903);
#814=LINE('',#2011,#904);
#815=LINE('',#2013,#905);
#816=LINE('',#2015,#906);
#817=LINE('',#2019,#907);
#818=LINE('',#2021,#908);
#819=LINE('',#2025,#909);
#820=LINE('',#2027,#910);
#821=LINE('',#2029,#911);
#822=LINE('',#2031,#912);
#823=LINE('',#2065,#913);
#824=LINE('',#2068,#914);
#825=LINE('',#2069,#915);
#826=LINE('',#2071,#916);
#827=LINE('',#2073,#917);
#828=LINE('',#2075,#918);
#829=LINE('',#2079,#919);
#830=LINE('',#2085,#920);
#831=LINE('',#2086,#921);
#832=LINE('',#2114,#922);
#833=LINE('',#2116,#923);
#834=LINE('',#2118,#924);
#835=LINE('',#2120,#925);
#836=LINE('',#2124,#926);
#837=LINE('',#2126,#927);
#838=LINE('',#2131,#928);
#839=LINE('',#2133,#929);
#840=LINE('',#2135,#930);
#841=LINE('',#2137,#931);
#842=LINE('',#2141,#932);
#843=LINE('',#2143,#933);
#844=VECTOR('',#1398,1.);
#845=VECTOR('',#1401,1.);
#846=VECTOR('',#1404,1.);
#847=VECTOR('',#1407,1.);
#848=VECTOR('',#1412,1.);
#849=VECTOR('',#1417,1.);
#850=VECTOR('',#1422,1.);
#851=VECTOR('',#1427,1.);
#852=VECTOR('',#1430,1.);
#853=VECTOR('',#1433,1.);
#854=VECTOR('',#1436,1.);
#855=VECTOR('',#1439,1.);
#856=VECTOR('',#1444,1.);
#857=VECTOR('',#1449,1.);
#858=VECTOR('',#1454,1.);
#859=VECTOR('',#1457,1.);
#860=VECTOR('',#1468,1.);
#861=VECTOR('',#1469,1.);
#862=VECTOR('',#1470,1.);
#863=VECTOR('',#1471,1.);
#864=VECTOR('',#1478,1.);
#865=VECTOR('',#1481,1.);
#866=VECTOR('',#1484,1.);
#867=VECTOR('',#1487,1.);
#868=VECTOR('',#1492,1.);
#869=VECTOR('',#1495,1.);
#870=VECTOR('',#1498,1.);
#871=VECTOR('',#1499,1.);
#872=VECTOR('',#1504,1.);
#873=VECTOR('',#1507,1.);
#874=VECTOR('',#1508,1.);
#875=VECTOR('',#1513,1.);
#876=VECTOR('',#1516,1.);
#877=VECTOR('',#1517,1.);
#878=VECTOR('',#1522,1.);
#879=VECTOR('',#1525,1.);
#880=VECTOR('',#1526,1.);
#881=VECTOR('',#1527,1.);
#882=VECTOR('',#1528,1.);
#883=VECTOR('',#1531,1.);
#884=VECTOR('',#1534,1.);
#885=VECTOR('',#1537,1.);
#886=VECTOR('',#1538,1.);
#887=VECTOR('',#1543,1.);
#888=VECTOR('',#1548,1.);
#889=VECTOR('',#1551,1.);
#890=VECTOR('',#1552,1.);
#891=VECTOR('',#1557,1.);
#892=VECTOR('',#1562,1.);
#893=VECTOR('',#1567,1.);
#894=VECTOR('',#1570,1.);
#895=VECTOR('',#1571,1.);
#896=VECTOR('',#1576,1.);
#897=VECTOR('',#1581,1.);
#898=VECTOR('',#1584,1.);
#899=VECTOR('',#1585,1.);
#900=VECTOR('',#1590,1.);
#901=VECTOR('',#1599,1.);
#902=VECTOR('',#1602,1.);
#903=VECTOR('',#1605,1.);
#904=VECTOR('',#1606,1.);
#905=VECTOR('',#1609,1.);
#906=VECTOR('',#1610,1.);
#907=VECTOR('',#1615,1.);
#908=VECTOR('',#1618,1.);
#909=VECTOR('',#1623,1.);
#910=VECTOR('',#1624,1.);
#911=VECTOR('',#1627,1.);
#912=VECTOR('',#1628,1.);
#913=VECTOR('',#1687,1.);
#914=VECTOR('',#1688,1.);
#915=VECTOR('',#1689,1.);
#916=VECTOR('',#1692,1.);
#917=VECTOR('',#1693,1.);
#918=VECTOR('',#1694,1.);
#919=VECTOR('',#1699,1.);
#920=VECTOR('',#1708,1.);
#921=VECTOR('',#1709,1.);
#922=VECTOR('',#1752,1.);
#923=VECTOR('',#1753,1.);
#924=VECTOR('',#1754,1.);
#925=VECTOR('',#1757,1.);
#926=VECTOR('',#1762,1.);
#927=VECTOR('',#1763,1.);
#928=VECTOR('',#1772,1.);
#929=VECTOR('',#1773,1.);
#930=VECTOR('',#1774,1.);
#931=VECTOR('',#1777,1.);
#932=VECTOR('',#1782,1.);
#933=VECTOR('',#1783,1.);
#934=EDGE_LOOP('',(#138,#139,#140,#141));
#935=EDGE_LOOP('',(#142,#143,#144,#145));
#936=EDGE_LOOP('',(#146));
#937=EDGE_LOOP('',(#147,#148,#149,#150,#151,#152,#153,#154,#155,#156,#157,
#158,#159,#160,#161,#162,#163,#164,#165,#166,#167,#168,#169,#170,#171,#172,
#173,#174,#175,#176));
#938=EDGE_LOOP('',(#177));
#939=EDGE_LOOP('',(#178));
#940=EDGE_LOOP('',(#179));
#941=EDGE_LOOP('',(#180,#181,#182,#183));
#942=EDGE_LOOP('',(#184));
#943=EDGE_LOOP('',(#185));
#944=EDGE_LOOP('',(#186,#187,#188,#189,#190,#191,#192,#193));
#945=EDGE_LOOP('',(#194,#195,#196,#197));
#946=EDGE_LOOP('',(#198,#199,#200,#201));
#947=EDGE_LOOP('',(#202,#203,#204,#205));
#948=EDGE_LOOP('',(#206,#207,#208,#209));
#949=EDGE_LOOP('',(#210,#211,#212,#213));
#950=EDGE_LOOP('',(#214,#215,#216,#217));
#951=EDGE_LOOP('',(#218,#219,#220,#221));
#952=EDGE_LOOP('',(#222,#223,#224,#225,#226,#227,#228,#229));
#953=EDGE_LOOP('',(#230,#231,#232,#233));
#954=EDGE_LOOP('',(#234,#235,#236,#237));
#955=EDGE_LOOP('',(#238,#239,#240,#241));
#956=EDGE_LOOP('',(#242,#243,#244,#245));
#957=EDGE_LOOP('',(#246,#247,#248,#249));
#958=EDGE_LOOP('',(#250,#251,#252,#253,#254,#255));
#959=EDGE_LOOP('',(#256,#257,#258,#259,#260,#261));
#960=EDGE_LOOP('',(#262,#263,#264,#265));
#961=EDGE_LOOP('',(#266,#267,#268,#269));
#962=EDGE_LOOP('',(#270,#271,#272,#273));
#963=EDGE_LOOP('',(#274,#275,#276,#277));
#964=EDGE_LOOP('',(#278,#279,#280,#281));
#965=EDGE_LOOP('',(#282,#283,#284,#285,#286,#287,#288,#289,#290,#291,#292,
#293,#294,#295,#296,#297));
#966=EDGE_LOOP('',(#298,#299,#300,#301));
#967=EDGE_LOOP('',(#302,#303,#304,#305));
#968=EDGE_LOOP('',(#306,#307,#308,#309));
#969=EDGE_LOOP('',(#310,#311,#312,#313));
#970=EDGE_LOOP('',(#314,#315,#316,#317));
#971=EDGE_LOOP('',(#318,#319,#320,#321));
#972=EDGE_LOOP('',(#322,#323,#324,#325));
#973=EDGE_LOOP('',(#326,#327,#328,#329));
#974=EDGE_LOOP('',(#330,#331,#332,#333));
#975=EDGE_LOOP('',(#334,#335,#336,#337));
#976=EDGE_LOOP('',(#338,#339,#340,#341));
#977=EDGE_LOOP('',(#342,#343,#344,#345));
#978=EDGE_LOOP('',(#346,#347,#348,#349));
#979=EDGE_LOOP('',(#350,#351,#352,#353));
#980=EDGE_LOOP('',(#354,#355,#356,#357));
#981=EDGE_LOOP('',(#358,#359,#360,#361));
#982=EDGE_LOOP('',(#362,#363,#364,#365));
#983=EDGE_LOOP('',(#366,#367,#368,#369));
#984=EDGE_LOOP('',(#370));
#985=EDGE_LOOP('',(#371));
#986=EDGE_LOOP('',(#372));
#987=EDGE_LOOP('',(#373));
#988=EDGE_LOOP('',(#374));
#989=EDGE_LOOP('',(#375));
#990=EDGE_LOOP('',(#376));
#991=EDGE_LOOP('',(#377));
#992=EDGE_LOOP('',(#378,#379,#380,#381));
#993=EDGE_LOOP('',(#382,#383,#384,#385));
#994=EDGE_LOOP('',(#386,#387,#388,#389,#390,#391,#392,#393,#394,#395));
#995=EDGE_LOOP('',(#396,#397,#398,#399));
#996=EDGE_LOOP('',(#400,#401,#402,#403));
#997=EDGE_LOOP('',(#404,#405,#406,#407));
#998=EDGE_LOOP('',(#408,#409,#410,#411));
#999=EDGE_LOOP('',(#412,#413,#414,#415));
#1000=EDGE_LOOP('',(#416));
#1001=EDGE_LOOP('',(#417));
#1002=EDGE_LOOP('',(#418));
#1003=EDGE_LOOP('',(#419));
#1004=EDGE_LOOP('',(#420));
#1005=EDGE_LOOP('',(#421));
#1006=EDGE_LOOP('',(#422));
#1007=EDGE_LOOP('',(#423));
#1008=EDGE_LOOP('',(#424));
#1009=EDGE_LOOP('',(#425));
#1010=EDGE_LOOP('',(#426));
#1011=EDGE_LOOP('',(#427));
#1012=EDGE_LOOP('',(#428));
#1013=EDGE_LOOP('',(#429));
#1014=EDGE_LOOP('',(#430));
#1015=EDGE_LOOP('',(#431));
#1016=EDGE_LOOP('',(#432));
#1017=EDGE_LOOP('',(#433));
#1018=EDGE_LOOP('',(#434,#435,#436,#437));
#1019=EDGE_LOOP('',(#438,#439,#440,#441));
#1020=EDGE_LOOP('',(#442,#443,#444,#445));
#1021=EDGE_LOOP('',(#446,#447,#448,#449));
#1022=EDGE_LOOP('',(#450,#451,#452,#453));
#1023=EDGE_LOOP('',(#454,#455,#456,#457));
#1024=EDGE_LOOP('',(#458,#459,#460,#461));
#1025=EDGE_LOOP('',(#462,#463,#464,#465));
#1026=EDGE_LOOP('',(#466,#467,#468,#469));
#1027=EDGE_LOOP('',(#470,#471,#472,#473));
#1028=FACE_BOUND('',#934,.T.);
#1029=FACE_BOUND('',#935,.T.);
#1030=FACE_BOUND('',#936,.T.);
#1031=FACE_BOUND('',#937,.T.);
#1032=FACE_BOUND('',#938,.T.);
#1033=FACE_BOUND('',#939,.T.);
#1034=FACE_BOUND('',#940,.T.);
#1035=FACE_BOUND('',#941,.T.);
#1036=FACE_BOUND('',#942,.T.);
#1037=FACE_BOUND('',#943,.T.);
#1038=FACE_BOUND('',#944,.T.);
#1039=FACE_BOUND('',#945,.T.);
#1040=FACE_BOUND('',#946,.T.);
#1041=FACE_BOUND('',#947,.T.);
#1042=FACE_BOUND('',#948,.T.);
#1043=FACE_BOUND('',#949,.T.);
#1044=FACE_BOUND('',#950,.T.);
#1045=FACE_BOUND('',#951,.T.);
#1046=FACE_BOUND('',#952,.T.);
#1047=FACE_BOUND('',#953,.T.);
#1048=FACE_BOUND('',#954,.T.);
#1049=FACE_BOUND('',#955,.T.);
#1050=FACE_BOUND('',#956,.T.);
#1051=FACE_BOUND('',#957,.T.);
#1052=FACE_BOUND('',#958,.T.);
#1053=FACE_BOUND('',#959,.T.);
#1054=FACE_BOUND('',#960,.T.);
#1055=FACE_BOUND('',#961,.T.);
#1056=FACE_BOUND('',#962,.T.);
#1057=FACE_BOUND('',#963,.T.);
#1058=FACE_BOUND('',#964,.T.);
#1059=FACE_BOUND('',#965,.T.);
#1060=FACE_BOUND('',#966,.T.);
#1061=FACE_BOUND('',#967,.T.);
#1062=FACE_BOUND('',#968,.T.);
#1063=FACE_BOUND('',#969,.T.);
#1064=FACE_BOUND('',#970,.T.);
#1065=FACE_BOUND('',#971,.T.);
#1066=FACE_BOUND('',#972,.T.);
#1067=FACE_BOUND('',#973,.T.);
#1068=FACE_BOUND('',#974,.T.);
#1069=FACE_BOUND('',#975,.T.);
#1070=FACE_BOUND('',#976,.T.);
#1071=FACE_BOUND('',#977,.T.);
#1072=FACE_BOUND('',#978,.T.);
#1073=FACE_BOUND('',#979,.T.);
#1074=FACE_BOUND('',#980,.T.);
#1075=FACE_BOUND('',#981,.T.);
#1076=FACE_BOUND('',#982,.T.);
#1077=FACE_BOUND('',#983,.T.);
#1078=FACE_BOUND('',#984,.T.);
#1079=FACE_BOUND('',#985,.T.);
#1080=FACE_BOUND('',#986,.T.);
#1081=FACE_BOUND('',#987,.T.);
#1082=FACE_BOUND('',#988,.T.);
#1083=FACE_BOUND('',#989,.T.);
#1084=FACE_BOUND('',#990,.T.);
#1085=FACE_BOUND('',#991,.T.);
#1086=FACE_BOUND('',#992,.T.);
#1087=FACE_BOUND('',#993,.T.);
#1088=FACE_BOUND('',#994,.T.);
#1089=FACE_BOUND('',#995,.T.);
#1090=FACE_BOUND('',#996,.T.);
#1091=FACE_BOUND('',#997,.T.);
#1092=FACE_BOUND('',#998,.T.);
#1093=FACE_BOUND('',#999,.T.);
#1094=FACE_BOUND('',#1000,.T.);
#1095=FACE_BOUND('',#1001,.T.);
#1096=FACE_BOUND('',#1002,.T.);
#1097=FACE_BOUND('',#1003,.T.);
#1098=FACE_BOUND('',#1004,.T.);
#1099=FACE_BOUND('',#1005,.T.);
#1100=FACE_BOUND('',#1006,.T.);
#1101=FACE_BOUND('',#1007,.T.);
#1102=FACE_BOUND('',#1008,.T.);
#1103=FACE_BOUND('',#1009,.T.);
#1104=FACE_BOUND('',#1010,.T.);
#1105=FACE_BOUND('',#1011,.T.);
#1106=FACE_BOUND('',#1012,.T.);
#1107=FACE_BOUND('',#1013,.T.);
#1108=FACE_BOUND('',#1014,.T.);
#1109=FACE_BOUND('',#1015,.T.);
#1110=FACE_BOUND('',#1016,.T.);
#1111=FACE_BOUND('',#1017,.T.);
#1112=FACE_BOUND('',#1018,.T.);
#1113=FACE_BOUND('',#1019,.T.);
#1114=FACE_BOUND('',#1020,.T.);
#1115=FACE_BOUND('',#1021,.T.);
#1116=FACE_BOUND('',#1022,.T.);
#1117=FACE_BOUND('',#1023,.T.);
#1118=FACE_BOUND('',#1024,.T.);
#1119=FACE_BOUND('',#1025,.T.);
#1120=FACE_BOUND('',#1026,.T.);
#1121=FACE_BOUND('',#1027,.T.);
#1122=PLANE('',#1241);
#1123=PLANE('',#1268);
#1124=PLANE('',#1269);
#1125=PLANE('',#1278);
#1126=PLANE('',#1281);
#1127=PLANE('',#1284);
#1128=PLANE('',#1287);
#1129=PLANE('',#1290);
#1130=PLANE('',#1295);
#1131=PLANE('',#1302);
#1132=PLANE('',#1307);
#1133=PLANE('',#1310);
#1134=PLANE('',#1315);
#1135=PLANE('',#1316);
#1136=PLANE('',#1321);
#1137=PLANE('',#1322);
#1138=PLANE('',#1351);
#1139=PLANE('',#1352);
#1140=PLANE('',#1353);
#1141=PLANE('',#1358);
#1142=PLANE('',#1365);
#1143=PLANE('',#1368);
#1144=PLANE('',#1371);
#1145=PLANE('',#1375);
#1146=PLANE('',#1379);
#1147=PLANE('',#1382);
#1148=PLANE('',#1385);
#1149=PLANE('',#1386);
#1150=PLANE('',#1389);
#1151=PLANE('',#1392);
#1152=ADVANCED_FACE('',(#1028,#1029,#1030,#1031,#1032,#1033,#1034),#1122,
 .T.);
#1153=ADVANCED_FACE('',(#1035),#1123,.F.);
#1154=ADVANCED_FACE('',(#1036,#1037,#1038),#1124,.T.);
#1155=ADVANCED_FACE('',(#1039),#34,.T.);
#1156=ADVANCED_FACE('',(#1040),#1125,.T.);
#1157=ADVANCED_FACE('',(#1041),#35,.T.);
#1158=ADVANCED_FACE('',(#1042),#1126,.T.);
#1159=ADVANCED_FACE('',(#1043),#36,.T.);
#1160=ADVANCED_FACE('',(#1044),#1127,.F.);
#1161=ADVANCED_FACE('',(#1045),#37,.T.);
#1162=ADVANCED_FACE('',(#1046),#1128,.F.);
#1163=ADVANCED_FACE('',(#1047),#38,.F.);
#1164=ADVANCED_FACE('',(#1048),#1129,.F.);
#1165=ADVANCED_FACE('',(#1049),#39,.F.);
#1166=ADVANCED_FACE('',(#1050),#40,.T.);
#1167=ADVANCED_FACE('',(#1051),#1130,.F.);
#1168=ADVANCED_FACE('',(#1052),#41,.F.);
#1169=ADVANCED_FACE('',(#1053),#42,.F.);
#1170=ADVANCED_FACE('',(#1054),#1131,.F.);
#1171=ADVANCED_FACE('',(#1055),#43,.T.);
#1172=ADVANCED_FACE('',(#1056),#44,.F.);
#1173=ADVANCED_FACE('',(#1057),#1132,.F.);
#1174=ADVANCED_FACE('',(#1058),#45,.F.);
#1175=ADVANCED_FACE('',(#1059),#1133,.F.);
#1176=ADVANCED_FACE('',(#1060),#20,.T.);
#1177=ADVANCED_FACE('',(#1061),#1134,.T.);
#1178=ADVANCED_FACE('',(#1062),#1135,.F.);
#1179=ADVANCED_FACE('',(#1063),#21,.T.);
#1180=ADVANCED_FACE('',(#1064),#22,.T.);
#1181=ADVANCED_FACE('',(#1065),#1136,.T.);
#1182=ADVANCED_FACE('',(#1066),#1137,.F.);
#1183=ADVANCED_FACE('',(#1067),#23,.T.);
#1184=ADVANCED_FACE('',(#1068),#16,.T.);
#1185=ADVANCED_FACE('',(#1069),#46,.T.);
#1186=ADVANCED_FACE('',(#1070),#47,.T.);
#1187=ADVANCED_FACE('',(#1071),#17,.T.);
#1188=ADVANCED_FACE('',(#1072),#18,.T.);
#1189=ADVANCED_FACE('',(#1073),#48,.T.);
#1190=ADVANCED_FACE('',(#1074),#49,.T.);
#1191=ADVANCED_FACE('',(#1075),#19,.T.);
#1192=ADVANCED_FACE('',(#1076),#50,.T.);
#1193=ADVANCED_FACE('',(#1077),#51,.T.);
#1194=ADVANCED_FACE('',(#1078,#1079),#52,.F.);
#1195=ADVANCED_FACE('',(#1080,#1081),#53,.F.);
#1196=ADVANCED_FACE('',(#1082,#1083),#24,.F.);
#1197=ADVANCED_FACE('',(#1084,#1085),#25,.F.);
#1198=ADVANCED_FACE('',(#1086),#1138,.T.);
#1199=ADVANCED_FACE('',(#1087),#1139,.F.);
#1200=ADVANCED_FACE('',(#1088),#1140,.T.);
#1201=ADVANCED_FACE('',(#1089),#1141,.F.);
#1202=ADVANCED_FACE('',(#1090),#54,.T.);
#1203=ADVANCED_FACE('',(#1091),#55,.T.);
#1204=ADVANCED_FACE('',(#1092),#56,.F.);
#1205=ADVANCED_FACE('',(#1093),#57,.F.);
#1206=ADVANCED_FACE('',(#1094,#1095),#26,.T.);
#1207=ADVANCED_FACE('',(#1096,#1097),#1142,.T.);
#1208=ADVANCED_FACE('',(#1098,#1099),#27,.T.);
#1209=ADVANCED_FACE('',(#1100,#1101),#1143,.T.);
#1210=ADVANCED_FACE('',(#1102,#1103),#58,.T.);
#1211=ADVANCED_FACE('',(#1104),#1144,.T.);
#1212=ADVANCED_FACE('',(#1105,#1106),#59,.T.);
#1213=ADVANCED_FACE('',(#1107),#1145,.T.);
#1214=ADVANCED_FACE('',(#1108,#1109),#28,.T.);
#1215=ADVANCED_FACE('',(#1110,#1111),#29,.T.);
#1216=ADVANCED_FACE('',(#1112),#1146,.T.);
#1217=ADVANCED_FACE('',(#1113),#30,.T.);
#1218=ADVANCED_FACE('',(#1114),#1147,.T.);
#1219=ADVANCED_FACE('',(#1115),#31,.T.);
#1220=ADVANCED_FACE('',(#1116),#1148,.T.);
#1221=ADVANCED_FACE('',(#1117),#1149,.T.);
#1222=ADVANCED_FACE('',(#1118),#32,.T.);
#1223=ADVANCED_FACE('',(#1119),#1150,.T.);
#1224=ADVANCED_FACE('',(#1120),#33,.T.);
#1225=ADVANCED_FACE('',(#1121),#1151,.T.);
#1226=CLOSED_SHELL('',(#1152,#1153,#1154,#1155,#1156,#1157,#1158,#1159,
#1160,#1161,#1162,#1163,#1164,#1165,#1166,#1167,#1168,#1169,#1170,#1171,
#1172,#1173,#1174,#1175,#1176,#1177,#1178,#1179,#1180,#1181,#1182,#1183,
#1184,#1185,#1186,#1187,#1188,#1189,#1190,#1191,#1192,#1193,#1194,#1195,
#1196,#1197,#1198,#1199,#1200,#1201,#1202,#1203,#1204,#1205,#1206,#1207,
#1208,#1209,#1210,#1211,#1212,#1213,#1214,#1215,#1216,#1217,#1218,#1219,
#1220,#1221,#1222,#1223,#1224,#1225));
#1227=STYLED_ITEM('',(#1228),#1235);
#1228=PRESENTATION_STYLE_ASSIGNMENT((#1229));
#1229=SURFACE_STYLE_USAGE(.BOTH.,#1230);
#1230=SURFACE_SIDE_STYLE('',(#1231));
#1231=SURFACE_STYLE_FILL_AREA(#1232);
#1232=FILL_AREA_STYLE('',(#1233));
#1233=FILL_AREA_STYLE_COLOUR('',#1234);
#1234=COLOUR_RGB('',0.615686274509804,0.811764705882353,0.929411764705882);
#1235=MANIFOLD_SOLID_BREP('Bottom Shell',#1226);
#1236=SHAPE_DEFINITION_REPRESENTATION(#2156,#1238);
#1237=SHAPE_DEFINITION_REPRESENTATION(#2157,#1239);
#1238=SHAPE_REPRESENTATION('Bottom Shell',(#1240,#1393),#2149);
#1239=SHAPE_REPRESENTATION('Bottom Shell',(#1240),#2150);
#1240=AXIS2_PLACEMENT_3D('',#1792,#1394,#1395);
#1241=AXIS2_PLACEMENT_3D('',#1793,#1396,#1397);
#1242=AXIS2_PLACEMENT_3D('',#1797,#1399,#1400);
#1243=AXIS2_PLACEMENT_3D('',#1801,#1402,#1403);
#1244=AXIS2_PLACEMENT_3D('',#1805,#1405,#1406);
#1245=AXIS2_PLACEMENT_3D('',#1809,#1408,#1409);
#1246=AXIS2_PLACEMENT_3D('',#1810,#1410,#1411);
#1247=AXIS2_PLACEMENT_3D('',#1815,#1413,#1414);
#1248=AXIS2_PLACEMENT_3D('',#1817,#1415,#1416);
#1249=AXIS2_PLACEMENT_3D('',#1821,#1418,#1419);
#1250=AXIS2_PLACEMENT_3D('',#1823,#1420,#1421);
#1251=AXIS2_PLACEMENT_3D('',#1827,#1423,#1424);
#1252=AXIS2_PLACEMENT_3D('',#1829,#1425,#1426);
#1253=AXIS2_PLACEMENT_3D('',#1833,#1428,#1429);
#1254=AXIS2_PLACEMENT_3D('',#1837,#1431,#1432);
#1255=AXIS2_PLACEMENT_3D('',#1841,#1434,#1435);
#1256=AXIS2_PLACEMENT_3D('',#1845,#1437,#1438);
#1257=AXIS2_PLACEMENT_3D('',#1849,#1440,#1441);
#1258=AXIS2_PLACEMENT_3D('',#1851,#1442,#1443);
#1259=AXIS2_PLACEMENT_3D('',#1855,#1445,#1446);
#1260=AXIS2_PLACEMENT_3D('',#1857,#1447,#1448);
#1261=AXIS2_PLACEMENT_3D('',#1861,#1450,#1451);
#1262=AXIS2_PLACEMENT_3D('',#1863,#1452,#1453);
#1263=AXIS2_PLACEMENT_3D('',#1867,#1455,#1456);
#1264=AXIS2_PLACEMENT_3D('',#1871,#1458,#1459);
#1265=AXIS2_PLACEMENT_3D('',#1872,#1460,#1461);
#1266=AXIS2_PLACEMENT_3D('',#1874,#1462,#1463);
#1267=AXIS2_PLACEMENT_3D('',#1876,#1464,#1465);
#1268=AXIS2_PLACEMENT_3D('',#1878,#1466,#1467);
#1269=AXIS2_PLACEMENT_3D('',#1887,#1472,#1473);
#1270=AXIS2_PLACEMENT_3D('',#1888,#1474,#1475);
#1271=AXIS2_PLACEMENT_3D('',#1890,#1476,#1477);
#1272=AXIS2_PLACEMENT_3D('',#1895,#1479,#1480);
#1273=AXIS2_PLACEMENT_3D('',#1899,#1482,#1483);
#1274=AXIS2_PLACEMENT_3D('',#1903,#1485,#1486);
#1275=AXIS2_PLACEMENT_3D('',#1907,#1488,#1489);
#1276=AXIS2_PLACEMENT_3D('',#1908,#1490,#1491);
#1277=AXIS2_PLACEMENT_3D('',#1911,#1493,#1494);
#1278=AXIS2_PLACEMENT_3D('',#1914,#1496,#1497);
#1279=AXIS2_PLACEMENT_3D('',#1918,#1500,#1501);
#1280=AXIS2_PLACEMENT_3D('',#1919,#1502,#1503);
#1281=AXIS2_PLACEMENT_3D('',#1922,#1505,#1506);
#1282=AXIS2_PLACEMENT_3D('',#1926,#1509,#1510);
#1283=AXIS2_PLACEMENT_3D('',#1927,#1511,#1512);
#1284=AXIS2_PLACEMENT_3D('',#1930,#1514,#1515);
#1285=AXIS2_PLACEMENT_3D('',#1934,#1518,#1519);
#1286=AXIS2_PLACEMENT_3D('',#1935,#1520,#1521);
#1287=AXIS2_PLACEMENT_3D('',#1938,#1523,#1524);
#1288=AXIS2_PLACEMENT_3D('',#1945,#1529,#1530);
#1289=AXIS2_PLACEMENT_3D('',#1948,#1532,#1533);
#1290=AXIS2_PLACEMENT_3D('',#1951,#1535,#1536);
#1291=AXIS2_PLACEMENT_3D('',#1955,#1539,#1540);
#1292=AXIS2_PLACEMENT_3D('',#1956,#1541,#1542);
#1293=AXIS2_PLACEMENT_3D('',#1959,#1544,#1545);
#1294=AXIS2_PLACEMENT_3D('',#1960,#1546,#1547);
#1295=AXIS2_PLACEMENT_3D('',#1963,#1549,#1550);
#1296=AXIS2_PLACEMENT_3D('',#1967,#1553,#1554);
#1297=AXIS2_PLACEMENT_3D('',#1968,#1555,#1556);
#1298=AXIS2_PLACEMENT_3D('',#1971,#1558,#1559);
#1299=AXIS2_PLACEMENT_3D('',#1972,#1560,#1561);
#1300=AXIS2_PLACEMENT_3D('',#1975,#1563,#1564);
#1301=AXIS2_PLACEMENT_3D('',#1976,#1565,#1566);
#1302=AXIS2_PLACEMENT_3D('',#1979,#1568,#1569);
#1303=AXIS2_PLACEMENT_3D('',#1983,#1572,#1573);
#1304=AXIS2_PLACEMENT_3D('',#1984,#1574,#1575);
#1305=AXIS2_PLACEMENT_3D('',#1987,#1577,#1578);
#1306=AXIS2_PLACEMENT_3D('',#1988,#1579,#1580);
#1307=AXIS2_PLACEMENT_3D('',#1991,#1582,#1583);
#1308=AXIS2_PLACEMENT_3D('',#1995,#1586,#1587);
#1309=AXIS2_PLACEMENT_3D('',#1996,#1588,#1589);
#1310=AXIS2_PLACEMENT_3D('',#1999,#1591,#1592);
#1311=AXIS2_PLACEMENT_3D('',#2000,#1593,#1594);
#1312=AXIS2_PLACEMENT_3D('',#2001,#1595,#1596);
#1313=AXIS2_PLACEMENT_3D('',#2002,#1597,#1598);
#1314=AXIS2_PLACEMENT_3D('',#2005,#1600,#1601);
#1315=AXIS2_PLACEMENT_3D('',#2008,#1603,#1604);
#1316=AXIS2_PLACEMENT_3D('',#2012,#1607,#1608);
#1317=AXIS2_PLACEMENT_3D('',#2016,#1611,#1612);
#1318=AXIS2_PLACEMENT_3D('',#2017,#1613,#1614);
#1319=AXIS2_PLACEMENT_3D('',#2020,#1616,#1617);
#1320=AXIS2_PLACEMENT_3D('',#2023,#1619,#1620);
#1321=AXIS2_PLACEMENT_3D('',#2024,#1621,#1622);
#1322=AXIS2_PLACEMENT_3D('',#2028,#1625,#1626);
#1323=AXIS2_PLACEMENT_3D('',#2032,#1629,#1630);
#1324=AXIS2_PLACEMENT_3D('',#2033,#1631,#1632);
#1325=AXIS2_PLACEMENT_3D('',#2034,#1633,#1634);
#1326=AXIS2_PLACEMENT_3D('',#2035,#1635,#1636);
#1327=AXIS2_PLACEMENT_3D('',#2036,#1637,#1638);
#1328=AXIS2_PLACEMENT_3D('',#2037,#1639,#1640);
#1329=AXIS2_PLACEMENT_3D('',#2038,#1641,#1642);
#1330=AXIS2_PLACEMENT_3D('',#2039,#1643,#1644);
#1331=AXIS2_PLACEMENT_3D('',#2040,#1645,#1646);
#1332=AXIS2_PLACEMENT_3D('',#2041,#1647,#1648);
#1333=AXIS2_PLACEMENT_3D('',#2042,#1649,#1650);
#1334=AXIS2_PLACEMENT_3D('',#2043,#1651,#1652);
#1335=AXIS2_PLACEMENT_3D('',#2044,#1653,#1654);
#1336=AXIS2_PLACEMENT_3D('',#2045,#1655,#1656);
#1337=AXIS2_PLACEMENT_3D('',#2046,#1657,#1658);
#1338=AXIS2_PLACEMENT_3D('',#2047,#1659,#1660);
#1339=AXIS2_PLACEMENT_3D('',#2048,#1661,#1662);
#1340=AXIS2_PLACEMENT_3D('',#2049,#1663,#1664);
#1341=AXIS2_PLACEMENT_3D('',#2050,#1665,#1666);
#1342=AXIS2_PLACEMENT_3D('',#2051,#1667,#1668);
#1343=AXIS2_PLACEMENT_3D('',#2052,#1669,#1670);
#1344=AXIS2_PLACEMENT_3D('',#2053,#1671,#1672);
#1345=AXIS2_PLACEMENT_3D('',#2055,#1673,#1674);
#1346=AXIS2_PLACEMENT_3D('',#2057,#1675,#1676);
#1347=AXIS2_PLACEMENT_3D('',#2058,#1677,#1678);
#1348=AXIS2_PLACEMENT_3D('',#2060,#1679,#1680);
#1349=AXIS2_PLACEMENT_3D('',#2062,#1681,#1682);
#1350=AXIS2_PLACEMENT_3D('',#2063,#1683,#1684);
#1351=AXIS2_PLACEMENT_3D('',#2064,#1685,#1686);
#1352=AXIS2_PLACEMENT_3D('',#2070,#1690,#1691);
#1353=AXIS2_PLACEMENT_3D('',#2076,#1695,#1696);
#1354=AXIS2_PLACEMENT_3D('',#2077,#1697,#1698);
#1355=AXIS2_PLACEMENT_3D('',#2081,#1700,#1701);
#1356=AXIS2_PLACEMENT_3D('',#2082,#1702,#1703);
#1357=AXIS2_PLACEMENT_3D('',#2083,#1704,#1705);
#1358=AXIS2_PLACEMENT_3D('',#2084,#1706,#1707);
#1359=AXIS2_PLACEMENT_3D('',#2087,#1710,#1711);
#1360=AXIS2_PLACEMENT_3D('',#2088,#1712,#1713);
#1361=AXIS2_PLACEMENT_3D('',#2089,#1714,#1715);
#1362=AXIS2_PLACEMENT_3D('',#2090,#1716,#1717);
#1363=AXIS2_PLACEMENT_3D('',#2091,#1718,#1719);
#1364=AXIS2_PLACEMENT_3D('',#2092,#1720,#1721);
#1365=AXIS2_PLACEMENT_3D('',#2094,#1722,#1723);
#1366=AXIS2_PLACEMENT_3D('',#2095,#1724,#1725);
#1367=AXIS2_PLACEMENT_3D('',#2096,#1726,#1727);
#1368=AXIS2_PLACEMENT_3D('',#2098,#1728,#1729);
#1369=AXIS2_PLACEMENT_3D('',#2099,#1730,#1731);
#1370=AXIS2_PLACEMENT_3D('',#2100,#1732,#1733);
#1371=AXIS2_PLACEMENT_3D('',#2102,#1734,#1735);
#1372=AXIS2_PLACEMENT_3D('',#2103,#1736,#1737);
#1373=AXIS2_PLACEMENT_3D('',#2105,#1738,#1739);
#1374=AXIS2_PLACEMENT_3D('',#2106,#1740,#1741);
#1375=AXIS2_PLACEMENT_3D('',#2108,#1742,#1743);
#1376=AXIS2_PLACEMENT_3D('',#2109,#1744,#1745);
#1377=AXIS2_PLACEMENT_3D('',#2111,#1746,#1747);
#1378=AXIS2_PLACEMENT_3D('',#2112,#1748,#1749);
#1379=AXIS2_PLACEMENT_3D('',#2113,#1750,#1751);
#1380=AXIS2_PLACEMENT_3D('',#2119,#1755,#1756);
#1381=AXIS2_PLACEMENT_3D('',#2122,#1758,#1759);
#1382=AXIS2_PLACEMENT_3D('',#2123,#1760,#1761);
#1383=AXIS2_PLACEMENT_3D('',#2127,#1764,#1765);
#1384=AXIS2_PLACEMENT_3D('',#2128,#1766,#1767);
#1385=AXIS2_PLACEMENT_3D('',#2129,#1768,#1769);
#1386=AXIS2_PLACEMENT_3D('',#2130,#1770,#1771);
#1387=AXIS2_PLACEMENT_3D('',#2136,#1775,#1776);
#1388=AXIS2_PLACEMENT_3D('',#2139,#1778,#1779);
#1389=AXIS2_PLACEMENT_3D('',#2140,#1780,#1781);
#1390=AXIS2_PLACEMENT_3D('',#2144,#1784,#1785);
#1391=AXIS2_PLACEMENT_3D('',#2145,#1786,#1787);
#1392=AXIS2_PLACEMENT_3D('',#2146,#1788,#1789);
#1393=AXIS2_PLACEMENT_3D('',#2147,#1790,#1791);
#1394=DIRECTION('',(0.,0.,1.));
#1395=DIRECTION('',(1.,0.,0.));
#1396=DIRECTION('',(0.,0.,1.));
#1397=DIRECTION('',(1.,0.,0.));
#1398=DIRECTION('',(1.,0.,0.));
#1399=DIRECTION('',(0.,0.,1.));
#1400=DIRECTION('',(1.,0.,0.));
#1401=DIRECTION('',(-1.,0.,0.));
#1402=DIRECTION('',(0.,0.,1.));
#1403=DIRECTION('',(1.,0.,0.));
#1404=DIRECTION('',(1.,0.,0.));
#1405=DIRECTION('',(0.,0.,1.));
#1406=DIRECTION('',(1.,0.,0.));
#1407=DIRECTION('',(-1.,0.,0.));
#1408=DIRECTION('',(0.,0.,1.));
#1409=DIRECTION('',(1.,0.,0.));
#1410=DIRECTION('',(0.,0.,1.));
#1411=DIRECTION('',(1.,0.,0.));
#1412=DIRECTION('',(1.,0.,0.));
#1413=DIRECTION('',(0.,0.,1.));
#1414=DIRECTION('',(1.,0.,0.));
#1415=DIRECTION('',(0.,0.,1.));
#1416=DIRECTION('',(1.,0.,0.));
#1417=DIRECTION('',(-1.,0.,0.));
#1418=DIRECTION('',(0.,0.,1.));
#1419=DIRECTION('',(1.,0.,0.));
#1420=DIRECTION('',(0.,0.,1.));
#1421=DIRECTION('',(1.,0.,0.));
#1422=DIRECTION('',(-1.,0.,0.));
#1423=DIRECTION('',(0.,0.,1.));
#1424=DIRECTION('',(1.,0.,0.));
#1425=DIRECTION('',(0.,0.,1.));
#1426=DIRECTION('',(1.,0.,0.));
#1427=DIRECTION('',(6.12323399573677E-17,-1.,0.));
#1428=DIRECTION('',(0.,0.,1.));
#1429=DIRECTION('',(1.,0.,0.));
#1430=DIRECTION('',(-1.,1.32169407693471E-16,0.));
#1431=DIRECTION('',(0.,0.,1.));
#1432=DIRECTION('',(1.,0.,0.));
#1433=DIRECTION('',(0.,-1.,0.));
#1434=DIRECTION('',(0.,0.,1.));
#1435=DIRECTION('',(1.,0.,0.));
#1436=DIRECTION('',(-1.,1.32169407693471E-16,0.));
#1437=DIRECTION('',(0.,0.,1.));
#1438=DIRECTION('',(1.,0.,0.));
#1439=DIRECTION('',(6.12323399573677E-17,-1.,0.));
#1440=DIRECTION('',(0.,0.,1.));
#1441=DIRECTION('',(1.,0.,0.));
#1442=DIRECTION('',(0.,0.,1.));
#1443=DIRECTION('',(1.,0.,0.));
#1444=DIRECTION('',(1.,0.,0.));
#1445=DIRECTION('',(0.,0.,1.));
#1446=DIRECTION('',(1.,0.,0.));
#1447=DIRECTION('',(0.,0.,1.));
#1448=DIRECTION('',(1.,0.,0.));
#1449=DIRECTION('',(1.,0.,0.));
#1450=DIRECTION('',(0.,0.,1.));
#1451=DIRECTION('',(1.,0.,0.));
#1452=DIRECTION('',(0.,0.,1.));
#1453=DIRECTION('',(1.,0.,0.));
#1454=DIRECTION('',(1.,0.,0.));
#1455=DIRECTION('',(0.,0.,1.));
#1456=DIRECTION('',(1.,0.,0.));
#1457=DIRECTION('',(0.,-1.,0.));
#1458=DIRECTION('',(0.,0.,1.));
#1459=DIRECTION('',(1.,0.,0.));
#1460=DIRECTION('',(0.,0.,1.));
#1461=DIRECTION('',(1.,0.,0.));
#1462=DIRECTION('',(0.,0.,1.));
#1463=DIRECTION('',(1.,0.,0.));
#1464=DIRECTION('',(0.,0.,1.));
#1465=DIRECTION('',(1.,0.,0.));
#1466=DIRECTION('',(1.,0.,0.));
#1467=DIRECTION('',(0.,0.,-1.));
#1468=DIRECTION('',(0.,-1.,0.));
#1469=DIRECTION('',(0.,0.,-1.));
#1470=DIRECTION('',(0.,-1.,0.));
#1471=DIRECTION('',(0.,0.,1.));
#1472=DIRECTION('',(0.,0.,-1.));
#1473=DIRECTION('',(1.,0.,0.));
#1474=DIRECTION('',(0.,0.,-1.));
#1475=DIRECTION('',(-1.,0.,0.));
#1476=DIRECTION('',(0.,0.,-1.));
#1477=DIRECTION('',(-1.,0.,0.));
#1478=DIRECTION('',(1.,-1.32169407693471E-16,0.));
#1479=DIRECTION('',(0.,0.,-1.));
#1480=DIRECTION('',(-1.,0.,0.));
#1481=DIRECTION('',(0.,-1.,0.));
#1482=DIRECTION('',(0.,0.,-1.));
#1483=DIRECTION('',(-1.,0.,0.));
#1484=DIRECTION('',(-1.,1.32169407693471E-16,0.));
#1485=DIRECTION('',(0.,0.,-1.));
#1486=DIRECTION('',(-1.,0.,0.));
#1487=DIRECTION('',(-6.12323399573677E-17,1.,0.));
#1488=DIRECTION('',(0.,0.,-1.));
#1489=DIRECTION('',(-1.,0.,0.));
#1490=DIRECTION('',(0.,0.,-1.));
#1491=DIRECTION('',(-1.,0.,0.));
#1492=DIRECTION('',(0.,0.,-1.));
#1493=DIRECTION('',(0.,0.,-1.));
#1494=DIRECTION('',(-1.,0.,0.));
#1495=DIRECTION('',(0.,0.,-1.));
#1496=DIRECTION('',(-1.32169407693471E-16,-1.,0.));
#1497=DIRECTION('',(1.,-1.32169407693471E-16,0.));
#1498=DIRECTION('',(-1.,1.32169407693471E-16,0.));
#1499=DIRECTION('',(0.,0.,-1.));
#1500=DIRECTION('',(0.,0.,-1.));
#1501=DIRECTION('',(-1.,0.,0.));
#1502=DIRECTION('',(0.,0.,-1.));
#1503=DIRECTION('',(-1.,0.,0.));
#1504=DIRECTION('',(0.,0.,-1.));
#1505=DIRECTION('',(1.,0.,0.));
#1506=DIRECTION('',(0.,0.,-1.));
#1507=DIRECTION('',(0.,-1.,0.));
#1508=DIRECTION('',(0.,0.,-1.));
#1509=DIRECTION('',(0.,0.,-1.));
#1510=DIRECTION('',(-1.,0.,0.));
#1511=DIRECTION('',(0.,0.,-1.));
#1512=DIRECTION('',(-1.,0.,0.));
#1513=DIRECTION('',(0.,0.,-1.));
#1514=DIRECTION('',(-1.32169407693471E-16,-1.,0.));
#1515=DIRECTION('',(1.,-1.32169407693471E-16,0.));
#1516=DIRECTION('',(-1.,1.32169407693471E-16,0.));
#1517=DIRECTION('',(0.,0.,-1.));
#1518=DIRECTION('',(0.,0.,-1.));
#1519=DIRECTION('',(-1.,0.,0.));
#1520=DIRECTION('',(0.,0.,-1.));
#1521=DIRECTION('',(-1.,0.,0.));
#1522=DIRECTION('',(0.,0.,-1.));
#1523=DIRECTION('',(1.,6.12323399573677E-17,0.));
#1524=DIRECTION('',(-6.12323399573677E-17,1.,0.));
#1525=DIRECTION('',(0.,0.,1.));
#1526=DIRECTION('',(-6.12323399573677E-17,1.,0.));
#1527=DIRECTION('',(0.,0.,1.));
#1528=DIRECTION('',(6.12323399573677E-17,-1.,-1.05208578180918E-32));
#1529=DIRECTION('',(0.,0.,-1.));
#1530=DIRECTION('',(-1.,0.,0.));
#1531=DIRECTION('',(0.,0.,-1.));
#1532=DIRECTION('',(0.,0.,1.));
#1533=DIRECTION('',(1.,0.,0.));
#1534=DIRECTION('',(0.,0.,1.));
#1535=DIRECTION('',(0.,1.,0.));
#1536=DIRECTION('',(0.,0.,1.));
#1537=DIRECTION('',(1.,0.,0.));
#1538=DIRECTION('',(0.,0.,-1.));
#1539=DIRECTION('',(0.,0.,-1.));
#1540=DIRECTION('',(-1.,0.,0.));
#1541=DIRECTION('',(0.,0.,1.));
#1542=DIRECTION('',(1.,0.,0.));
#1543=DIRECTION('',(0.,0.,-1.));
#1544=DIRECTION('',(0.,0.,-1.));
#1545=DIRECTION('',(-1.,0.,0.));
#1546=DIRECTION('',(0.,0.,1.));
#1547=DIRECTION('',(1.,0.,0.));
#1548=DIRECTION('',(0.,0.,1.));
#1549=DIRECTION('',(0.,1.,0.));
#1550=DIRECTION('',(0.,0.,1.));
#1551=DIRECTION('',(1.,0.,0.));
#1552=DIRECTION('',(0.,0.,1.));
#1553=DIRECTION('',(0.,0.,1.));
#1554=DIRECTION('',(1.,0.,0.));
#1555=DIRECTION('',(0.,0.,1.));
#1556=DIRECTION('',(1.,0.,0.));
#1557=DIRECTION('',(0.,0.,1.));
#1558=DIRECTION('',(0.,0.,1.));
#1559=DIRECTION('',(1.,0.,0.));
#1560=DIRECTION('',(0.,0.,1.));
#1561=DIRECTION('',(1.,0.,0.));
#1562=DIRECTION('',(0.,0.,1.));
#1563=DIRECTION('',(0.,0.,1.));
#1564=DIRECTION('',(1.,0.,0.));
#1565=DIRECTION('',(0.,0.,1.));
#1566=DIRECTION('',(1.,0.,0.));
#1567=DIRECTION('',(0.,0.,-1.));
#1568=DIRECTION('',(0.,-1.,0.));
#1569=DIRECTION('',(0.,0.,-1.));
#1570=DIRECTION('',(-1.,0.,0.));
#1571=DIRECTION('',(0.,0.,-1.));
#1572=DIRECTION('',(0.,0.,-1.));
#1573=DIRECTION('',(-1.,0.,0.));
#1574=DIRECTION('',(0.,0.,1.));
#1575=DIRECTION('',(1.,0.,0.));
#1576=DIRECTION('',(0.,0.,-1.));
#1577=DIRECTION('',(0.,0.,-1.));
#1578=DIRECTION('',(-1.,0.,0.));
#1579=DIRECTION('',(0.,0.,1.));
#1580=DIRECTION('',(1.,0.,0.));
#1581=DIRECTION('',(0.,0.,-1.));
#1582=DIRECTION('',(0.,-1.,0.));
#1583=DIRECTION('',(0.,0.,-1.));
#1584=DIRECTION('',(-1.,0.,0.));
#1585=DIRECTION('',(0.,0.,-1.));
#1586=DIRECTION('',(0.,0.,-1.));
#1587=DIRECTION('',(-1.,0.,0.));
#1588=DIRECTION('',(0.,0.,1.));
#1589=DIRECTION('',(1.,0.,0.));
#1590=DIRECTION('',(0.,0.,-1.));
#1591=DIRECTION('',(0.,0.,-1.));
#1592=DIRECTION('',(1.,0.,0.));
#1593=DIRECTION('',(0.,0.,-1.));
#1594=DIRECTION('',(-1.,0.,0.));
#1595=DIRECTION('',(0.,0.,-1.));
#1596=DIRECTION('',(-1.,0.,0.));
#1597=DIRECTION('',(0.,0.,1.));
#1598=DIRECTION('',(1.,0.,0.));
#1599=DIRECTION('',(0.,0.707106781186547,-0.707106781186548));
#1600=DIRECTION('',(0.,0.,1.));
#1601=DIRECTION('',(1.,0.,0.));
#1602=DIRECTION('',(-0.707106781186547,0.,0.707106781186548));
#1603=DIRECTION('',(-0.707106781186549,-4.32978028117747E-17,-0.707106781186547));
#1604=DIRECTION('',(6.12323399573677E-17,-1.,0.));
#1605=DIRECTION('',(6.12323399573677E-17,-1.,-3.7196849535361E-33));
#1606=DIRECTION('',(-0.707106781186547,0.,0.707106781186549));
#1607=DIRECTION('',(9.34578844454629E-17,0.707106781186549,0.707106781186547));
#1608=DIRECTION('',(-1.,1.32169407693471E-16,0.));
#1609=DIRECTION('',(0.,0.707106781186547,-0.707106781186549));
#1610=DIRECTION('',(1.,-1.32169407693471E-16,8.71576399210526E-33));
#1611=DIRECTION('',(0.,0.,1.));
#1612=DIRECTION('',(1.,0.,0.));
#1613=DIRECTION('',(0.,0.,1.));
#1614=DIRECTION('',(1.,0.,0.));
#1615=DIRECTION('',(0.,0.707106781186547,0.707106781186549));
#1616=DIRECTION('',(0.,0.,1.));
#1617=DIRECTION('',(1.,0.,0.));
#1618=DIRECTION('',(-0.707106781186547,0.,-0.707106781186548));
#1619=DIRECTION('',(0.,0.,1.));
#1620=DIRECTION('',(1.,0.,0.));
#1621=DIRECTION('',(9.34578844454629E-17,0.707106781186549,-0.707106781186547));
#1622=DIRECTION('',(-1.,1.32169407693471E-16,0.));
#1623=DIRECTION('',(-1.,1.32169407693471E-16,4.35788199605264E-33));
#1624=DIRECTION('',(0.,0.707106781186547,0.707106781186549));
#1625=DIRECTION('',(-0.707106781186549,0.,0.707106781186547));
#1626=DIRECTION('',(0.,-1.,0.));
#1627=DIRECTION('',(-0.707106781186547,0.,-0.707106781186549));
#1628=DIRECTION('',(0.,1.,0.));
#1629=DIRECTION('',(0.,0.,1.));
#1630=DIRECTION('',(1.,0.,0.));
#1631=DIRECTION('',(0.,0.,1.));
#1632=DIRECTION('',(1.,0.,0.));
#1633=DIRECTION('',(0.,0.,-1.));
#1634=DIRECTION('',(-1.,0.,0.));
#1635=DIRECTION('',(0.,-1.,0.));
#1636=DIRECTION('',(0.,0.,-1.));
#1637=DIRECTION('',(-1.,0.,0.));
#1638=DIRECTION('',(0.,0.,1.));
#1639=DIRECTION('',(1.,-1.32169407693471E-16,0.));
#1640=DIRECTION('',(1.32169407693471E-16,1.,0.));
#1641=DIRECTION('',(-1.,0.,0.));
#1642=DIRECTION('',(0.,0.,1.));
#1643=DIRECTION('',(0.,-1.,0.));
#1644=DIRECTION('',(0.,0.,-1.));
#1645=DIRECTION('',(0.,-1.,0.));
#1646=DIRECTION('',(0.,0.,-1.));
#1647=DIRECTION('',(0.,0.,-1.));
#1648=DIRECTION('',(-1.,0.,0.));
#1649=DIRECTION('',(0.,-1.,0.));
#1650=DIRECTION('',(0.,0.,-1.));
#1651=DIRECTION('',(0.,0.,-1.));
#1652=DIRECTION('',(-1.,0.,0.));
#1653=DIRECTION('',(-1.,0.,0.));
#1654=DIRECTION('',(0.,0.,1.));
#1655=DIRECTION('',(-6.12323399573677E-17,1.,1.05208578180918E-32));
#1656=DIRECTION('',(-1.,-6.12323399573677E-17,0.));
#1657=DIRECTION('',(0.,-1.,0.));
#1658=DIRECTION('',(0.,0.,-1.));
#1659=DIRECTION('',(-1.,1.32169407693471E-16,0.));
#1660=DIRECTION('',(-1.32169407693471E-16,-1.,0.));
#1661=DIRECTION('',(-1.,0.,0.));
#1662=DIRECTION('',(0.,0.,1.));
#1663=DIRECTION('',(0.,0.,-1.));
#1664=DIRECTION('',(-1.,0.,0.));
#1665=DIRECTION('',(0.,0.,-1.));
#1666=DIRECTION('',(-1.,0.,0.));
#1667=DIRECTION('',(0.,0.,-1.));
#1668=DIRECTION('',(-1.,0.,0.));
#1669=DIRECTION('',(0.,0.,1.));
#1670=DIRECTION('',(1.,0.,0.));
#1671=DIRECTION('',(0.,0.,-1.));
#1672=DIRECTION('',(-1.,0.,0.));
#1673=DIRECTION('',(0.,0.,1.));
#1674=DIRECTION('',(1.,0.,0.));
#1675=DIRECTION('',(0.,0.,1.));
#1676=DIRECTION('',(1.,0.,0.));
#1677=DIRECTION('',(0.,0.,-1.));
#1678=DIRECTION('',(-1.,0.,0.));
#1679=DIRECTION('',(0.,0.,1.));
#1680=DIRECTION('',(1.,0.,0.));
#1681=DIRECTION('',(0.,0.,-1.));
#1682=DIRECTION('',(-1.,0.,0.));
#1683=DIRECTION('',(0.,0.,-1.));
#1684=DIRECTION('',(-1.,0.,0.));
#1685=DIRECTION('',(0.,-1.,0.));
#1686=DIRECTION('',(0.,0.,-1.));
#1687=DIRECTION('',(1.,0.,0.));
#1688=DIRECTION('',(-0.707106781186547,0.,-0.707106781186548));
#1689=DIRECTION('',(0.,0.,1.));
#1690=DIRECTION('',(0.,-1.,0.));
#1691=DIRECTION('',(0.,0.,-1.));
#1692=DIRECTION('',(0.707106781186547,0.,0.707106781186548));
#1693=DIRECTION('',(1.,0.,0.));
#1694=DIRECTION('',(0.,0.,-1.));
#1695=DIRECTION('',(0.,0.,1.));
#1696=DIRECTION('',(1.,0.,0.));
#1697=DIRECTION('',(0.,0.,1.));
#1698=DIRECTION('',(1.,0.,0.));
#1699=DIRECTION('',(0.,-1.,0.));
#1700=DIRECTION('',(0.,0.,1.));
#1701=DIRECTION('',(1.,0.,0.));
#1702=DIRECTION('',(0.,0.,1.));
#1703=DIRECTION('',(1.,0.,0.));
#1704=DIRECTION('',(0.,0.,1.));
#1705=DIRECTION('',(1.,0.,0.));
#1706=DIRECTION('',(0.707106781186548,0.,-0.707106781186547));
#1707=DIRECTION('',(0.,-1.,0.));
#1708=DIRECTION('',(-0.707106781186547,0.,-0.707106781186548));
#1709=DIRECTION('',(0.707106781186547,0.,0.707106781186548));
#1710=DIRECTION('',(0.,0.,1.));
#1711=DIRECTION('',(1.,0.,0.));
#1712=DIRECTION('',(0.,0.,1.));
#1713=DIRECTION('',(1.,0.,0.));
#1714=DIRECTION('',(0.707106781186547,0.,0.707106781186548));
#1715=DIRECTION('',(0.707106781186548,0.,-0.707106781186547));
#1716=DIRECTION('',(0.707106781186547,0.,0.707106781186548));
#1717=DIRECTION('',(0.707106781186548,0.,-0.707106781186547));
#1718=DIRECTION('',(0.,0.,-1.));
#1719=DIRECTION('',(1.,0.,0.));
#1720=DIRECTION('',(0.,0.,1.));
#1721=DIRECTION('',(1.,0.,0.));
#1722=DIRECTION('',(0.,0.,1.));
#1723=DIRECTION('',(1.,0.,0.));
#1724=DIRECTION('',(0.,0.,-1.));
#1725=DIRECTION('',(1.,0.,0.));
#1726=DIRECTION('',(0.,0.,1.));
#1727=DIRECTION('',(1.,0.,0.));
#1728=DIRECTION('',(0.,0.,1.));
#1729=DIRECTION('',(1.,0.,0.));
#1730=DIRECTION('',(0.,0.,-1.));
#1731=DIRECTION('',(-1.,0.,0.));
#1732=DIRECTION('',(0.,0.,1.));
#1733=DIRECTION('',(1.,0.,0.));
#1734=DIRECTION('',(0.,0.,1.));
#1735=DIRECTION('',(1.,0.,0.));
#1736=DIRECTION('',(0.,0.,1.));
#1737=DIRECTION('',(1.,0.,0.));
#1738=DIRECTION('',(0.,0.,-1.));
#1739=DIRECTION('',(-1.,0.,0.));
#1740=DIRECTION('',(0.,0.,1.));
#1741=DIRECTION('',(1.,0.,0.));
#1742=DIRECTION('',(0.,0.,1.));
#1743=DIRECTION('',(1.,0.,0.));
#1744=DIRECTION('',(0.,0.,1.));
#1745=DIRECTION('',(1.,0.,0.));
#1746=DIRECTION('',(0.,0.,-1.));
#1747=DIRECTION('',(-1.,0.,0.));
#1748=DIRECTION('',(0.,0.,-1.));
#1749=DIRECTION('',(-1.,0.,0.));
#1750=DIRECTION('',(0.,0.99026806874157,0.139173100960065));
#1751=DIRECTION('',(0.,-0.139173100960065,0.99026806874157));
#1752=DIRECTION('',(0.,0.139173100960065,-0.99026806874157));
#1753=DIRECTION('',(1.,0.,0.));
#1754=DIRECTION('',(0.,0.139173100960065,-0.99026806874157));
#1755=DIRECTION('',(0.,0.,-1.));
#1756=DIRECTION('',(1.,0.,0.));
#1757=DIRECTION('',(0.,-0.139173100960065,-0.99026806874157));
#1758=DIRECTION('',(0.,0.,1.));
#1759=DIRECTION('',(1.,0.,0.));
#1760=DIRECTION('',(0.,-0.99026806874157,0.139173100960065));
#1761=DIRECTION('',(0.,0.139173100960065,0.99026806874157));
#1762=DIRECTION('',(0.,-0.139173100960065,-0.99026806874157));
#1763=DIRECTION('',(-1.,0.,0.));
#1764=DIRECTION('',(0.,0.,-1.));
#1765=DIRECTION('',(1.,0.,0.));
#1766=DIRECTION('',(0.,0.,1.));
#1767=DIRECTION('',(1.,0.,0.));
#1768=DIRECTION('',(0.,0.,1.));
#1769=DIRECTION('',(1.,0.,0.));
#1770=DIRECTION('',(0.,0.99026806874157,0.139173100960065));
#1771=DIRECTION('',(0.,-0.139173100960065,0.99026806874157));
#1772=DIRECTION('',(0.,0.139173100960065,-0.99026806874157));
#1773=DIRECTION('',(1.,0.,0.));
#1774=DIRECTION('',(0.,0.139173100960065,-0.99026806874157));
#1775=DIRECTION('',(0.,0.,-1.));
#1776=DIRECTION('',(1.,0.,0.));
#1777=DIRECTION('',(0.,-0.139173100960065,-0.99026806874157));
#1778=DIRECTION('',(0.,0.,1.));
#1779=DIRECTION('',(1.,0.,0.));
#1780=DIRECTION('',(0.,-0.99026806874157,0.139173100960065));
#1781=DIRECTION('',(0.,0.139173100960065,0.99026806874157));
#1782=DIRECTION('',(0.,-0.139173100960065,-0.99026806874157));
#1783=DIRECTION('',(-1.,0.,0.));
#1784=DIRECTION('',(0.,0.,-1.));
#1785=DIRECTION('',(1.,0.,0.));
#1786=DIRECTION('',(0.,0.,1.));
#1787=DIRECTION('',(1.,0.,0.));
#1788=DIRECTION('',(0.,0.,1.));
#1789=DIRECTION('',(1.,0.,0.));
#1790=DIRECTION('',(0.,0.,1.));
#1791=DIRECTION('',(1.,0.,0.));
#1792=CARTESIAN_POINT('',(0.,0.,0.));
#1793=CARTESIAN_POINT('',(0.016125,1.38777878078145E-17,0.0017));
#1794=CARTESIAN_POINT('',(0.03225,0.0102905408347024,0.0017));
#1795=CARTESIAN_POINT('',(0.0022,0.0102905408347024,0.0017));
#1796=CARTESIAN_POINT('',(0.0072,0.0102905408347024,0.0017));
#1797=CARTESIAN_POINT('',(0.0072,0.00965,0.0017));
#1798=CARTESIAN_POINT('',(0.0072,0.00900945916529761,0.0017));
#1799=CARTESIAN_POINT('',(0.03225,0.00900945916529761,0.0017));
#1800=CARTESIAN_POINT('',(0.0022,0.00900945916529761,0.0017));
#1801=CARTESIAN_POINT('',(0.0022,0.00965,0.0017));
#1802=CARTESIAN_POINT('',(0.03225,-0.00900945916529761,0.0017));
#1803=CARTESIAN_POINT('',(0.0022,-0.00900945916529761,0.0017));
#1804=CARTESIAN_POINT('',(0.0072,-0.00900945916529761,0.0017));
#1805=CARTESIAN_POINT('',(0.0072,-0.00965,0.0017));
#1806=CARTESIAN_POINT('',(0.0072,-0.0102905408347024,0.0017));
#1807=CARTESIAN_POINT('',(0.03225,-0.0102905408347024,0.0017));
#1808=CARTESIAN_POINT('',(0.0022,-0.0102905408347024,0.0017));
#1809=CARTESIAN_POINT('',(0.0022,-0.00965,0.0017));
#1810=CARTESIAN_POINT('',(0.01225,0.008,0.0017));
#1811=CARTESIAN_POINT('',(0.0153905408347024,0.008,0.0017));
#1812=CARTESIAN_POINT('',(0.0259,-0.0026499965561624,0.0017));
#1813=CARTESIAN_POINT('',(0.0244784287799492,-0.0026499965561624,0.0017));
#1814=CARTESIAN_POINT('',(0.0275357864376269,-0.0026499965561624,0.0017));
#1815=CARTESIAN_POINT('',(0.0244784287799492,-0.0036499965561624,0.0017));
#1816=CARTESIAN_POINT('',(0.0235356192151164,-0.003316664702809,0.0017));
#1817=CARTESIAN_POINT('',(0.02165000149415,-0.00265000149415001,0.0017));
#1818=CARTESIAN_POINT('',(0.0216499965561668,-0.00465,0.0017));
#1819=CARTESIAN_POINT('',(0.0159999956867669,-0.00465,0.0017));
#1820=CARTESIAN_POINT('',(0.01064641375186,-0.00465,0.0017));
#1821=CARTESIAN_POINT('',(0.0106464176167553,-0.005649999252925,0.0017));
#1822=CARTESIAN_POINT('',(0.00964755267000931,-0.00560238282697593,0.0017));
#1823=CARTESIAN_POINT('',(0.00750000785806002,-0.00550001685799999,0.0017));
#1824=CARTESIAN_POINT('',(0.00750000321197927,-0.00765000000000497,0.0017));
#1825=CARTESIAN_POINT('',(0.00475000139452608,-0.0076499999999972,0.0017));
#1826=CARTESIAN_POINT('',(0.00199999925292518,-0.0076499999999972,0.0017));
#1827=CARTESIAN_POINT('',(0.00199999850584997,-0.0055000014941,0.0017));
#1828=CARTESIAN_POINT('',(0.000783018745583943,-0.0072724161854914,0.0017));
#1829=CARTESIAN_POINT('',(0.0005,-0.00768460593505838,0.0017));
#1830=CARTESIAN_POINT('',(4.69356552825793E-19,-0.00768460593505838,0.0017));
#1831=CARTESIAN_POINT('',(4.01412807863394E-19,-0.006575000373525,0.0017));
#1832=CARTESIAN_POINT('',(5.64839319882911E-19,-0.009,0.0017));
#1833=CARTESIAN_POINT('',(0.003,-0.009,0.0017));
#1834=CARTESIAN_POINT('',(0.003,-0.012,0.0017));
#1835=CARTESIAN_POINT('',(0.016125,-0.012,0.0017));
#1836=CARTESIAN_POINT('',(0.02925,-0.012,0.0017));
#1837=CARTESIAN_POINT('',(0.02925,-0.009,0.0017));
#1838=CARTESIAN_POINT('',(0.03225,-0.009,0.0017));
#1839=CARTESIAN_POINT('',(0.03225,1.21430643318376E-17,0.0017));
#1840=CARTESIAN_POINT('',(0.03225,0.009,0.0017));
#1841=CARTESIAN_POINT('',(0.02925,0.009,0.0017));
#1842=CARTESIAN_POINT('',(0.02925,0.012,0.0017));
#1843=CARTESIAN_POINT('',(0.016125,0.012,0.0017));
#1844=CARTESIAN_POINT('',(0.003,0.012,0.0017));
#1845=CARTESIAN_POINT('',(0.003,0.009,0.0017));
#1846=CARTESIAN_POINT('',(-1.7347234759768E-18,0.009,0.0017));
#1847=CARTESIAN_POINT('',(-4.0379253119295E-19,0.00657500074707501,0.0017));
#1848=CARTESIAN_POINT('',(-4.71736253285069E-19,0.00768460593510838,0.0017));
#1849=CARTESIAN_POINT('',(0.0005,0.00768460593510838,0.0017));
#1850=CARTESIAN_POINT('',(0.000783018745583942,0.0072724161855414,0.0017));
#1851=CARTESIAN_POINT('',(0.00199999850584997,0.00550000149415,0.0017));
#1852=CARTESIAN_POINT('',(0.00199999930895566,0.00764999999999985,0.0017));
#1853=CARTESIAN_POINT('',(0.00474999999999989,0.00765,0.0017));
#1854=CARTESIAN_POINT('',(0.0075000007470748,0.00765,0.0017));
#1855=CARTESIAN_POINT('',(0.00750000149415001,0.00550000149415,0.0017));
#1856=CARTESIAN_POINT('',(0.00964756117642679,0.00560237818204308,0.0017));
#1857=CARTESIAN_POINT('',(0.0106464259017354,0.0056499992529276,0.0017));
#1858=CARTESIAN_POINT('',(0.010646422036737,0.0046500000000026,0.0017));
#1859=CARTESIAN_POINT('',(0.0160000001867674,0.0046500000000026,0.0017));
#1860=CARTESIAN_POINT('',(0.0216499965561629,0.0046500000000026,0.0017));
#1861=CARTESIAN_POINT('',(0.02165000149415,0.0026500014941526,0.0017));
#1862=CARTESIAN_POINT('',(0.0235356192151983,0.00331666470257994,0.0017));
#1863=CARTESIAN_POINT('',(0.024478428780072,0.0036499965558175,0.0017));
#1864=CARTESIAN_POINT('',(0.024478428780072,0.0026499965558175,0.0017));
#1865=CARTESIAN_POINT('',(0.0259,0.0026499965558175,0.0017));
#1866=CARTESIAN_POINT('',(0.0275357864376269,0.0026499965558175,0.0017));
#1867=CARTESIAN_POINT('',(0.0275357864376269,0.0016499965558175,0.0017));
#1868=CARTESIAN_POINT('',(0.02895,0.0016499965558175,0.0017));
#1869=CARTESIAN_POINT('',(0.02895,1.38777878078145E-17,0.0017));
#1870=CARTESIAN_POINT('',(0.02895,-0.0016499965561624,0.0017));
#1871=CARTESIAN_POINT('',(0.0275357864376269,-0.0016499965561624,0.0017));
#1872=CARTESIAN_POINT('',(0.02825,0.008,0.0017));
#1873=CARTESIAN_POINT('',(0.0291,0.008,0.0017));
#1874=CARTESIAN_POINT('',(0.01225,-0.008,0.0017));
#1875=CARTESIAN_POINT('',(0.0153905408347024,-0.008,0.0017));
#1876=CARTESIAN_POINT('',(0.02825,-0.008,0.0017));
#1877=CARTESIAN_POINT('',(0.0291,-0.008,0.0017));
#1878=CARTESIAN_POINT('',(0.02365,9.71445146547012E-17,0.0017));
#1879=CARTESIAN_POINT('',(0.02365,-1.72450161789462E-13,0.0009));
#1880=CARTESIAN_POINT('',(0.02365,0.0026499965558175,0.0009));
#1881=CARTESIAN_POINT('',(0.02365,-0.0026499965561624,0.0009));
#1882=CARTESIAN_POINT('',(0.02365,0.0026500014941526,0.0017));
#1883=CARTESIAN_POINT('',(0.02365,0.0026499965558175,0.));
#1884=CARTESIAN_POINT('',(0.02365,9.71445146547012E-17,0.));
#1885=CARTESIAN_POINT('',(0.02365,-0.0026499965561624,0.));
#1886=CARTESIAN_POINT('',(0.02365,-0.00265000149415001,0.0017));
#1887=CARTESIAN_POINT('',(0.016125,1.7347234759768E-17,-0.001));
#1888=CARTESIAN_POINT('',(0.01225,-0.008,-0.001));
#1889=CARTESIAN_POINT('',(0.00875,-0.008,-0.001));
#1890=CARTESIAN_POINT('',(0.01225,0.008,-0.001));
#1891=CARTESIAN_POINT('',(0.00875,0.008,-0.001));
#1892=CARTESIAN_POINT('',(0.02925,0.01155,-0.001));
#1893=CARTESIAN_POINT('',(0.003,0.01155,-0.001));
#1894=CARTESIAN_POINT('',(0.02925,0.01155,-0.001));
#1895=CARTESIAN_POINT('',(0.02925,0.009,-0.001));
#1896=CARTESIAN_POINT('',(0.0318,0.009,-0.001));
#1897=CARTESIAN_POINT('',(0.0318,1.7347234759768E-17,-0.001));
#1898=CARTESIAN_POINT('',(0.0318,-0.009,-0.001));
#1899=CARTESIAN_POINT('',(0.02925,-0.009,-0.001));
#1900=CARTESIAN_POINT('',(0.02925,-0.01155,-0.001));
#1901=CARTESIAN_POINT('',(0.016125,-0.01155,-0.001));
#1902=CARTESIAN_POINT('',(0.003,-0.01155,-0.001));
#1903=CARTESIAN_POINT('',(0.003,-0.009,-0.001));
#1904=CARTESIAN_POINT('',(0.00045,-0.009,-0.001));
#1905=CARTESIAN_POINT('',(0.00045,0.009,-0.001));
#1906=CARTESIAN_POINT('',(0.00045,0.009,-0.001));
#1907=CARTESIAN_POINT('',(0.003,0.009,-0.001));
#1908=CARTESIAN_POINT('',(0.003,-0.009,0.0017));
#1909=CARTESIAN_POINT('',(5.64839319882911E-19,-0.009,0.0017));
#1910=CARTESIAN_POINT('',(5.64839319882911E-19,-0.009,-0.000135786437626906));
#1911=CARTESIAN_POINT('',(0.003,-0.009,-0.000135786437626907));
#1912=CARTESIAN_POINT('',(0.003,-0.012,-0.000135786437626906));
#1913=CARTESIAN_POINT('',(0.003,-0.012,0.0017));
#1914=CARTESIAN_POINT('',(0.016125,-0.012,0.0017));
#1915=CARTESIAN_POINT('',(0.016125,-0.012,-0.000135786437626906));
#1916=CARTESIAN_POINT('',(0.02925,-0.012,-0.000135786437626906));
#1917=CARTESIAN_POINT('',(0.02925,-0.012,0.0017));
#1918=CARTESIAN_POINT('',(0.02925,-0.009,0.0017));
#1919=CARTESIAN_POINT('',(0.02925,-0.009,-0.000135786437626907));
#1920=CARTESIAN_POINT('',(0.03225,-0.009,-0.000135786437626907));
#1921=CARTESIAN_POINT('',(0.03225,-0.009,0.0017));
#1922=CARTESIAN_POINT('',(0.03225,1.21430643318376E-17,0.0017));
#1923=CARTESIAN_POINT('',(0.03225,1.21430643318376E-17,-0.000135786437626906));
#1924=CARTESIAN_POINT('',(0.03225,0.009,-0.000135786437626906));
#1925=CARTESIAN_POINT('',(0.03225,0.009,0.0017));
#1926=CARTESIAN_POINT('',(0.02925,0.009,0.0017));
#1927=CARTESIAN_POINT('',(0.02925,0.009,-0.000135786437626905));
#1928=CARTESIAN_POINT('',(0.02925,0.012,-0.000135786437626905));
#1929=CARTESIAN_POINT('',(0.02925,0.012,0.0017));
#1930=CARTESIAN_POINT('',(0.016125,0.012,0.0017));
#1931=CARTESIAN_POINT('',(0.003,0.012,-0.000135786437626906));
#1932=CARTESIAN_POINT('',(0.003,0.012,-0.000135786437626906));
#1933=CARTESIAN_POINT('',(0.003,0.012,0.0017));
#1934=CARTESIAN_POINT('',(0.003,0.009,0.0017));
#1935=CARTESIAN_POINT('',(0.003,0.009,-0.000135786437626905));
#1936=CARTESIAN_POINT('',(-1.7347234759768E-18,0.009,-0.000135786437626905));
#1937=CARTESIAN_POINT('',(-1.7347234759768E-18,0.009,0.0017));
#1938=CARTESIAN_POINT('',(-4.0379253119295E-19,0.00657500074707501,0.0017));
#1939=CARTESIAN_POINT('',(4.69356552825793E-19,-0.00768460593505838,0.));
#1940=CARTESIAN_POINT('',(4.69356552825793E-19,-0.00768460593505838,0.));
#1941=CARTESIAN_POINT('',(-1.18985022810807E-21,1.56125112837912E-17,0.));
#1942=CARTESIAN_POINT('',(-4.71736253285069E-19,0.00768460593510838,0.));
#1943=CARTESIAN_POINT('',(-4.71736253285069E-19,0.00768460593510838,0.0017));
#1944=CARTESIAN_POINT('',(5.49901209388201E-19,-0.009,-0.000135786437626906));
#1945=CARTESIAN_POINT('',(0.00199999850584997,0.00550000149415,0.0017));
#1946=CARTESIAN_POINT('',(0.000783018745583942,0.0072724161855414,0.0017));
#1947=CARTESIAN_POINT('',(0.000783018745583942,0.0072724161855414,0.));
#1948=CARTESIAN_POINT('',(0.00199999850584997,0.00550000149415,0.));
#1949=CARTESIAN_POINT('',(0.00199999925292499,0.00765,0.));
#1950=CARTESIAN_POINT('',(0.00199999925292499,0.00765,0.0017));
#1951=CARTESIAN_POINT('',(0.00474999999999989,0.00765,0.0017));
#1952=CARTESIAN_POINT('',(0.00474999999999989,0.00765,0.));
#1953=CARTESIAN_POINT('',(0.00750000069104412,0.00764999999999985,0.));
#1954=CARTESIAN_POINT('',(0.00750000069104412,0.00764999999999985,0.0017));
#1955=CARTESIAN_POINT('',(0.00750000149415001,0.00550000149415,0.0017));
#1956=CARTESIAN_POINT('',(0.00750000149415001,0.00550000149415,0.));
#1957=CARTESIAN_POINT('',(0.00964756117642679,0.00560237818204308,0.));
#1958=CARTESIAN_POINT('',(0.00964756117642679,0.00560237818204308,0.0017));
#1959=CARTESIAN_POINT('',(0.0106464259017354,0.0056499992529276,0.0017));
#1960=CARTESIAN_POINT('',(0.0106464259017354,0.0056499992529276,0.));
#1961=CARTESIAN_POINT('',(0.010646422036737,0.0046500000000026,0.));
#1962=CARTESIAN_POINT('',(0.0106464259017354,0.0046500000000026,0.0017));
#1963=CARTESIAN_POINT('',(0.0160000001867674,0.0046500000000026,0.0017));
#1964=CARTESIAN_POINT('',(0.0160000001867674,0.0046500000000026,0.));
#1965=CARTESIAN_POINT('',(0.0216499965561629,0.0046500000000026,0.));
#1966=CARTESIAN_POINT('',(0.02165000149415,0.0046500000000026,0.0017));
#1967=CARTESIAN_POINT('',(0.02165000149415,0.0026500014941526,0.0017));
#1968=CARTESIAN_POINT('',(0.02165000149415,0.0026500014941526,0.0009));
#1969=CARTESIAN_POINT('',(0.0235356192151983,0.00331666470257994,0.0009));
#1970=CARTESIAN_POINT('',(0.0235356192151983,0.00331666470257994,0.0017));
#1971=CARTESIAN_POINT('',(0.02165000149415,0.0026500014941526,0.));
#1972=CARTESIAN_POINT('',(0.02165000149415,-0.00265000149415001,0.0017));
#1973=CARTESIAN_POINT('',(0.0235356192151164,-0.003316664702809,0.0017));
#1974=CARTESIAN_POINT('',(0.0235356192151164,-0.003316664702809,0.0009));
#1975=CARTESIAN_POINT('',(0.02165000149415,-0.00265000149415001,0.0009));
#1976=CARTESIAN_POINT('',(0.02165000149415,-0.00265000149415001,0.));
#1977=CARTESIAN_POINT('',(0.0216499965561668,-0.00465,0.));
#1978=CARTESIAN_POINT('',(0.02165000149415,-0.00465,0.0017));
#1979=CARTESIAN_POINT('',(0.0159999956867669,-0.00465,0.0017));
#1980=CARTESIAN_POINT('',(0.0159999956867669,-0.00465,0.));
#1981=CARTESIAN_POINT('',(0.01064641375186,-0.00465,0.));
#1982=CARTESIAN_POINT('',(0.0106464176167553,-0.00465,0.0017));
#1983=CARTESIAN_POINT('',(0.0106464176167553,-0.005649999252925,0.0017));
#1984=CARTESIAN_POINT('',(0.0106464176167553,-0.005649999252925,0.));
#1985=CARTESIAN_POINT('',(0.00964755267000931,-0.00560238282697593,0.));
#1986=CARTESIAN_POINT('',(0.00964755267000931,-0.00560238282697593,0.0017));
#1987=CARTESIAN_POINT('',(0.00750000785806002,-0.00550001685799999,0.0017));
#1988=CARTESIAN_POINT('',(0.00750000785806002,-0.00550001685799999,0.));
#1989=CARTESIAN_POINT('',(0.00750000353612698,-0.0076499999999972,0.));
#1990=CARTESIAN_POINT('',(0.00750000353612698,-0.0076499999999972,0.0017));
#1991=CARTESIAN_POINT('',(0.00475000139452608,-0.0076499999999972,0.0017));
#1992=CARTESIAN_POINT('',(0.00475000139452608,-0.0076499999999972,0.));
#1993=CARTESIAN_POINT('',(0.00199999930895587,-0.00764999999994985,0.));
#1994=CARTESIAN_POINT('',(0.00199999930895587,-0.00764999999994985,0.0017));
#1995=CARTESIAN_POINT('',(0.00199999850584997,-0.0055000014941,0.0017));
#1996=CARTESIAN_POINT('',(0.00199999850584997,-0.0055000014941,0.));
#1997=CARTESIAN_POINT('',(0.000783018745583943,-0.0072724161854914,0.));
#1998=CARTESIAN_POINT('',(0.000783018745583942,-0.0072724161854914,0.0017));
#1999=CARTESIAN_POINT('',(0.016125,1.7347234759768E-17,0.));
#2000=CARTESIAN_POINT('',(0.0005,-0.00768460593505838,0.));
#2001=CARTESIAN_POINT('',(0.0005,0.00768460593510838,0.));
#2002=CARTESIAN_POINT('',(0.003,-0.009,-0.001));
#2003=CARTESIAN_POINT('',(0.003,-0.012,-0.00055));
#2004=CARTESIAN_POINT('',(0.003,-0.0117071067811865,-0.000842893218813454));
#2005=CARTESIAN_POINT('',(0.003,-0.009,-0.000842893218813453));
#2006=CARTESIAN_POINT('',(0.000292893218813452,-0.009,-0.000842893218813453));
#2007=CARTESIAN_POINT('',(0.00045,-0.009,-0.001));
#2008=CARTESIAN_POINT('',(0.00045,1.63874178309364E-17,-0.001));
#2009=CARTESIAN_POINT('',(0.000292893218813451,0.009,-0.000842893218813452));
#2010=CARTESIAN_POINT('',(0.00029289321881345,0.009,-0.000842893218813451));
#2011=CARTESIAN_POINT('',(0.00045,0.009,-0.001));
#2012=CARTESIAN_POINT('',(0.016125,-0.01155,-0.001));
#2013=CARTESIAN_POINT('',(0.02925,-0.012,-0.00055));
#2014=CARTESIAN_POINT('',(0.02925,-0.0117071067811865,-0.000842893218813453));
#2015=CARTESIAN_POINT('',(0.016125,-0.0117071067811865,-0.000842893218813453));
#2016=CARTESIAN_POINT('',(0.003,0.009,-0.001));
#2017=CARTESIAN_POINT('',(0.003,0.009,-0.000842893218813452));
#2018=CARTESIAN_POINT('',(0.003,0.0117071067811866,-0.000842893218813455));
#2019=CARTESIAN_POINT('',(0.003,0.01155,-0.001));
#2020=CARTESIAN_POINT('',(0.02925,-0.009,-0.001));
#2021=CARTESIAN_POINT('',(0.03225,-0.009,-0.00055));
#2022=CARTESIAN_POINT('',(0.0319571067811866,-0.009,-0.000842893218813451));
#2023=CARTESIAN_POINT('',(0.02925,-0.009,-0.000842893218813453));
#2024=CARTESIAN_POINT('',(0.016125,0.01155,-0.001));
#2025=CARTESIAN_POINT('',(0.02925,0.0117071067811866,-0.000842893218813453));
#2026=CARTESIAN_POINT('',(0.02925,0.0117071067811866,-0.000842893218813451));
#2027=CARTESIAN_POINT('',(0.02925,0.01155,-0.001));
#2028=CARTESIAN_POINT('',(0.0318,1.7347234759768E-17,-0.001));
#2029=CARTESIAN_POINT('',(0.03225,0.009,-0.00055));
#2030=CARTESIAN_POINT('',(0.0319571067811866,0.009,-0.000842893218813456));
#2031=CARTESIAN_POINT('',(0.0319571067811866,1.7347234759768E-17,-0.000842893218813455));
#2032=CARTESIAN_POINT('',(0.02925,0.009,-0.001));
#2033=CARTESIAN_POINT('',(0.02925,0.009,-0.000842893218813452));
#2034=CARTESIAN_POINT('',(0.02925,0.009,-0.000135786437626905));
#2035=CARTESIAN_POINT('',(0.03125,0.009,-0.000135786437626905));
#2036=CARTESIAN_POINT('',(0.02925,0.011,-0.000135786437626905));
#2037=CARTESIAN_POINT('',(0.016125,0.011,-0.000135786437626906));
#2038=CARTESIAN_POINT('',(0.003,0.011,-0.000135786437626906));
#2039=CARTESIAN_POINT('',(0.03125,1.21430643318376E-17,-0.000135786437626906));
#2040=CARTESIAN_POINT('',(0.03125,-0.009,-0.000135786437626908));
#2041=CARTESIAN_POINT('',(0.003,0.009,-0.000135786437626905));
#2042=CARTESIAN_POINT('',(0.001,0.009,-0.000135786437626905));
#2043=CARTESIAN_POINT('',(0.02925,-0.009,-0.000135786437626907));
#2044=CARTESIAN_POINT('',(0.02925,-0.011,-0.000135786437626907));
#2045=CARTESIAN_POINT('',(0.001,0.00657500074707501,-0.000135786437626906));
#2046=CARTESIAN_POINT('',(0.001,-0.009,-0.000135786437626906));
#2047=CARTESIAN_POINT('',(0.016125,-0.011,-0.000135786437626906));
#2048=CARTESIAN_POINT('',(0.003,-0.011,-0.000135786437626906));
#2049=CARTESIAN_POINT('',(0.003,-0.009,-0.000135786437626907));
#2050=CARTESIAN_POINT('',(0.0005,-0.00768460593505838,0.0017));
#2051=CARTESIAN_POINT('',(0.0005,0.00768460593510838,0.0017));
#2052=CARTESIAN_POINT('',(0.01225,-0.008,-0.0392888360010384));
#2053=CARTESIAN_POINT('',(0.01225,-0.008,0.));
#2054=CARTESIAN_POINT('',(0.00975,-0.008,0.));
#2055=CARTESIAN_POINT('',(0.01225,-0.008,0.0027));
#2056=CARTESIAN_POINT('',(0.01475,-0.008,0.0027));
#2057=CARTESIAN_POINT('',(0.01225,0.008,-0.0392888360010384));
#2058=CARTESIAN_POINT('',(0.01225,0.008,0.));
#2059=CARTESIAN_POINT('',(0.00975,0.008,0.));
#2060=CARTESIAN_POINT('',(0.01225,0.008,0.0027));
#2061=CARTESIAN_POINT('',(0.01475,0.008,0.0027));
#2062=CARTESIAN_POINT('',(0.01225,-0.008,-0.001));
#2063=CARTESIAN_POINT('',(0.01225,0.008,0.));
#2064=CARTESIAN_POINT('',(0.0259,0.0026499965558175,0.0009));
#2065=CARTESIAN_POINT('',(0.0259,0.0026499965558175,0.0009));
#2066=CARTESIAN_POINT('',(0.024478428780072,0.0026499965558175,0.0009));
#2067=CARTESIAN_POINT('',(0.0267357864376269,0.0026499965558175,0.0009));
#2068=CARTESIAN_POINT('',(0.0282428932188135,0.0026499965558175,0.00240710678118654));
#2069=CARTESIAN_POINT('',(0.024478428780072,0.0026499965558175,0.0009));
#2070=CARTESIAN_POINT('',(0.0259,-0.0026499965561624,0.0009));
#2071=CARTESIAN_POINT('',(0.0263178932188135,-0.0026499965561624,0.000482106781186546));
#2072=CARTESIAN_POINT('',(0.0267357864376269,-0.0026499965561624,0.0009));
#2073=CARTESIAN_POINT('',(0.0259,-0.0026499965561624,0.0009));
#2074=CARTESIAN_POINT('',(0.0244784287799492,-0.0026499965561624,0.0009));
#2075=CARTESIAN_POINT('',(0.0244784287799492,-0.0026499965561624,0.0017));
#2076=CARTESIAN_POINT('',(0.0259,-1.7245059547033E-13,0.0009));
#2077=CARTESIAN_POINT('',(0.0267357864376269,-0.0016499965561624,0.0009));
#2078=CARTESIAN_POINT('',(0.02815,-0.0016499965561624,0.0009));
#2079=CARTESIAN_POINT('',(0.02815,-1.72450161789462E-13,0.0009));
#2080=CARTESIAN_POINT('',(0.02815,0.0016499965558175,0.0009));
#2081=CARTESIAN_POINT('',(0.0267357864376269,0.0016499965558175,0.0009));
#2082=CARTESIAN_POINT('',(0.024478428780072,0.0036499965558175,0.0009));
#2083=CARTESIAN_POINT('',(0.0244784287799492,-0.0036499965561624,0.0009));
#2084=CARTESIAN_POINT('',(0.02895,1.38777878078145E-17,0.0017));
#2085=CARTESIAN_POINT('',(0.02895,-0.0016499965561624,0.0017));
#2086=CARTESIAN_POINT('',(0.02815,0.0016499965558175,0.0009));
#2087=CARTESIAN_POINT('',(0.0244784287799492,-0.0036499965561624,0.0017));
#2088=CARTESIAN_POINT('',(0.024478428780072,0.0036499965558175,0.0017));
#2089=CARTESIAN_POINT('',(0.0263178932188135,-0.0016499965561624,0.000482106781186546));
#2090=CARTESIAN_POINT('',(0.0263178932188135,0.0016499965558175,0.000482106781186546));
#2091=CARTESIAN_POINT('',(0.01225,0.008,0.0027));
#2092=CARTESIAN_POINT('',(0.01225,0.008,0.0027));
#2093=CARTESIAN_POINT('',(0.01525,0.008,0.0027));
#2094=CARTESIAN_POINT('',(0.03225,1.7347234759768E-17,0.0027));
#2095=CARTESIAN_POINT('',(0.01225,-0.008,0.0027));
#2096=CARTESIAN_POINT('',(0.01225,-0.008,0.0027));
#2097=CARTESIAN_POINT('',(0.01525,-0.008,0.0027));
#2098=CARTESIAN_POINT('',(0.03225,1.7347234759768E-17,0.0027));
#2099=CARTESIAN_POINT('',(0.02825,0.008,0.0027));
#2100=CARTESIAN_POINT('',(0.02825,0.008,0.0023));
#2101=CARTESIAN_POINT('',(0.0291,0.008,0.0023));
#2102=CARTESIAN_POINT('',(0.03225,1.7347234759768E-17,0.0027));
#2103=CARTESIAN_POINT('',(0.02825,0.008,0.0027));
#2104=CARTESIAN_POINT('',(0.0287,0.008,0.0027));
#2105=CARTESIAN_POINT('',(0.02825,-0.008,0.0027));
#2106=CARTESIAN_POINT('',(0.02825,-0.008,0.0023));
#2107=CARTESIAN_POINT('',(0.0291,-0.008,0.0023));
#2108=CARTESIAN_POINT('',(0.03225,1.7347234759768E-17,0.0027));
#2109=CARTESIAN_POINT('',(0.02825,-0.008,0.0027));
#2110=CARTESIAN_POINT('',(0.0287,-0.008,0.0027));
#2111=CARTESIAN_POINT('',(0.02825,-0.008,0.0023));
#2112=CARTESIAN_POINT('',(0.02825,0.008,0.0027));
#2113=CARTESIAN_POINT('',(0.03225,-0.00915,0.0027));
#2114=CARTESIAN_POINT('',(0.0022,-0.00915,0.0027));
#2115=CARTESIAN_POINT('',(0.0022,-0.00915,0.0027));
#2116=CARTESIAN_POINT('',(0.03225,-0.00915,0.0027));
#2117=CARTESIAN_POINT('',(0.0072,-0.00915,0.0027));
#2118=CARTESIAN_POINT('',(0.0072,-0.00915,0.0027));
#2119=CARTESIAN_POINT('',(0.0022,-0.00965,0.0027));
#2120=CARTESIAN_POINT('',(0.0022,-0.01015,0.0027));
#2121=CARTESIAN_POINT('',(0.0022,-0.01015,0.0027));
#2122=CARTESIAN_POINT('',(0.0022,-0.00965,0.0027));
#2123=CARTESIAN_POINT('',(0.03225,-0.01015,0.0027));
#2124=CARTESIAN_POINT('',(0.0072,-0.01015,0.0027));
#2125=CARTESIAN_POINT('',(0.0072,-0.01015,0.0027));
#2126=CARTESIAN_POINT('',(0.03225,-0.01015,0.0027));
#2127=CARTESIAN_POINT('',(0.0072,-0.00965,0.0027));
#2128=CARTESIAN_POINT('',(0.0072,-0.00965,0.0027));
#2129=CARTESIAN_POINT('',(0.03225,1.7347234759768E-17,0.0027));
#2130=CARTESIAN_POINT('',(0.03225,0.01015,0.0027));
#2131=CARTESIAN_POINT('',(0.0022,0.01015,0.0027));
#2132=CARTESIAN_POINT('',(0.0022,0.01015,0.0027));
#2133=CARTESIAN_POINT('',(0.03225,0.01015,0.0027));
#2134=CARTESIAN_POINT('',(0.0072,0.01015,0.0027));
#2135=CARTESIAN_POINT('',(0.0072,0.01015,0.0027));
#2136=CARTESIAN_POINT('',(0.0022,0.00965,0.0027));
#2137=CARTESIAN_POINT('',(0.0022,0.00915,0.0027));
#2138=CARTESIAN_POINT('',(0.0022,0.00915,0.0027));
#2139=CARTESIAN_POINT('',(0.0022,0.00965,0.0027));
#2140=CARTESIAN_POINT('',(0.03225,0.00915,0.0027));
#2141=CARTESIAN_POINT('',(0.0072,0.00915,0.0027));
#2142=CARTESIAN_POINT('',(0.0072,0.00915,0.0027));
#2143=CARTESIAN_POINT('',(0.03225,0.00915,0.0027));
#2144=CARTESIAN_POINT('',(0.0072,0.00965,0.0027));
#2145=CARTESIAN_POINT('',(0.0072,0.00965,0.0027));
#2146=CARTESIAN_POINT('',(0.03225,1.7347234759768E-17,0.0027));
#2147=CARTESIAN_POINT('',(0.,0.,0.));
#2148=MECHANICAL_DESIGN_GEOMETRIC_PRESENTATION_REPRESENTATION('',(#1227),
#2149);
#2149=(
GEOMETRIC_REPRESENTATION_CONTEXT(3)
GLOBAL_UNCERTAINTY_ASSIGNED_CONTEXT((#2151))
GLOBAL_UNIT_ASSIGNED_CONTEXT((#2155,#2154,#2153))
REPRESENTATION_CONTEXT('Bottom Shell','TOP_LEVEL_ASSEMBLY_PART')
);
#2150=(
GEOMETRIC_REPRESENTATION_CONTEXT(3)
GLOBAL_UNCERTAINTY_ASSIGNED_CONTEXT((#2152))
GLOBAL_UNIT_ASSIGNED_CONTEXT((#2155,#2154,#2153))
REPRESENTATION_CONTEXT('Bottom Shell','COMPONENT_PART')
);
#2151=UNCERTAINTY_MEASURE_WITH_UNIT(LENGTH_MEASURE(1.E-8),#2155,
'DISTANCE_ACCURACY_VALUE','Maximum Tolerance applied to model');
#2152=UNCERTAINTY_MEASURE_WITH_UNIT(LENGTH_MEASURE(1.E-8),#2155,
'DISTANCE_ACCURACY_VALUE','Maximum Tolerance applied to model');
#2153=(
NAMED_UNIT(*)
SI_UNIT($,.STERADIAN.)
SOLID_ANGLE_UNIT()
);
#2154=(
NAMED_UNIT(*)
PLANE_ANGLE_UNIT()
SI_UNIT($,.RADIAN.)
);
#2155=(
LENGTH_UNIT()
NAMED_UNIT(*)
SI_UNIT($,.METRE.)
);
#2156=PRODUCT_DEFINITION_SHAPE('','',#2159);
#2157=PRODUCT_DEFINITION_SHAPE('','',#2160);
#2158=PRODUCT_DEFINITION_SHAPE(' ','NAUO PRDDFN',#11);
#2159=PRODUCT_DEFINITION('','',#2163,#2161);
#2160=PRODUCT_DEFINITION('','',#2164,#2162);
#2161=PRODUCT_DEFINITION_CONTEXT('',#2174,'design');
#2162=PRODUCT_DEFINITION_CONTEXT('',#2174,'design');
#2163=PRODUCT_DEFINITION_FORMATION_WITH_SPECIFIED_SOURCE('','',#2167,
 .NOT_KNOWN.);
#2164=PRODUCT_DEFINITION_FORMATION_WITH_SPECIFIED_SOURCE('','',#2168,
 .NOT_KNOWN.);
#2165=PRODUCT_RELATED_PRODUCT_CATEGORY('','',(#2167));
#2166=PRODUCT_RELATED_PRODUCT_CATEGORY('','',(#2168));
#2167=PRODUCT('Bottom Shell','Bottom Shell','Bottom Shell',(#2171));
#2168=PRODUCT('Bottom Shell','Bottom Shell','Bottom Shell',(#2172));
#2169=PRODUCT_CATEGORY('','');
#2170=PRODUCT_CATEGORY('','');
#2171=PRODUCT_CONTEXT('',#2174,'mechanical');
#2172=PRODUCT_CONTEXT('',#2174,'mechanical');
#2173=APPLICATION_PROTOCOL_DEFINITION('international standard',
'ap242_managed_model_based_3d_engineering',2020,#2174);
#2174=APPLICATION_CONTEXT('managed model based 3d engineering');
ENDSEC;
END-ISO-10303-21;
